<?xml version="1.0" encoding="UTF-8"?>
<svg id="_情報" data-name="情報" xmlns="http://www.w3.org/2000/svg" viewBox="0 0 87.58 24.62">
  <defs>
    <style>
      .cls-1 {
        fill: #63a9c6;
      }
    </style>
  </defs>
  <g>
    <path class="cls-1" d="M13.89,19.49c.28-.07.65-.11,1.03-.11.64,0,1.05.14,1.34.42.21.21.31.48.31.84,0,.52-.37.96-.88,1.14v.02c.43.09,1.08.47,1.08,1.3,0,.42-.15.74-.38.98-.34.35-.89.49-1.61.49-.39,0-.69-.03-.89-.05v-5.04ZM14.25,21.67h.75c.74,0,1.2-.44,1.2-1.01,0-.72-.54-.98-1.3-.98-.34,0-.53.03-.65.05v1.93ZM14.25,24.23c.15.03.36.04.63.04.79,0,1.52-.28,1.52-1.15,0-.81-.69-1.15-1.5-1.15h-.64v2.26Z"/>
    <path class="cls-1" d="M23.88,21.93c0,1.8-1.1,2.69-2.29,2.69-1.26,0-2.23-.99-2.23-2.59s1.01-2.69,2.29-2.69,2.23,1.01,2.23,2.59ZM19.74,22.02c0,1.15.67,2.3,1.88,2.3s1.89-1.1,1.89-2.37c0-1.08-.59-2.31-1.88-2.31s-1.89,1.18-1.89,2.38Z"/>
    <path class="cls-1" d="M26.76,19.49c.39-.06.83-.11,1.31-.11.93,0,1.64.25,2.06.7.41.42.64,1,.64,1.77s-.21,1.43-.67,1.94c-.45.49-1.22.78-2.21.78-.39,0-.76,0-1.13-.05v-5.04ZM27.12,24.23c.21.03.5.04.82.04,1.64,0,2.45-.92,2.45-2.4.01-1.3-.71-2.18-2.35-2.18-.4,0-.71.04-.93.08v4.46Z"/>
    <path class="cls-1" d="M34.76,24.54v-2.21l-1.63-2.9h.41l.84,1.52c.22.4.4.73.58,1.1h.02c.16-.35.36-.7.59-1.11l.87-1.52h.41l-1.73,2.91v2.2h-.36Z"/>
    <path class="cls-1" d="M43.06,19.49c.39-.06.83-.11,1.31-.11.93,0,1.64.25,2.06.7.41.42.64,1,.64,1.77s-.21,1.43-.67,1.94c-.45.49-1.22.78-2.21.78-.39,0-.76,0-1.13-.05v-5.04ZM43.42,24.23c.21.03.5.04.82.04,1.64,0,2.45-.92,2.45-2.4.01-1.3-.71-2.18-2.35-2.18-.4,0-.71.04-.93.08v4.46Z"/>
    <path class="cls-1" d="M52.34,22h-2.04v2.24h2.29v.31h-2.65v-5.11h2.53v.31h-2.17v1.96h2.04v.31Z"/>
    <path class="cls-1" d="M55.29,23.97c.29.2.69.34,1.12.34.76,0,1.23-.43,1.23-1.06,0-.57-.3-.91-1.04-1.2-.82-.29-1.32-.71-1.32-1.41,0-.75.62-1.3,1.49-1.3.48,0,.84.12,1.02.24l-.14.3c-.14-.1-.46-.24-.9-.24-.83,0-1.11.53-1.11.93,0,.57.33.86,1.06,1.14.84.34,1.29.72,1.29,1.49s-.53,1.41-1.62,1.41c-.44,0-.96-.14-1.22-.34l.14-.3Z"/>
    <path class="cls-1" d="M61.3,19.42v5.11h-.36v-5.11h.36Z"/>
    <path class="cls-1" d="M68.18,24.31c-.26.1-.79.28-1.49.28s-1.3-.17-1.81-.67c-.42-.41-.7-1.1-.7-1.92,0-1.42.93-2.63,2.67-2.63.55,0,.99.13,1.19.23l-.12.3c-.27-.13-.6-.22-1.09-.22-1.41,0-2.27.91-2.27,2.3s.85,2.3,2.2,2.3c.54,0,.88-.08,1.07-.18v-1.8h-1.19v-.3h1.55v2.31Z"/>
    <path class="cls-1" d="M71.22,24.54v-5.11h.34l1.99,3.02c.42.64.71,1.11.96,1.61h.02c-.05-.7-.06-1.28-.06-2.09v-2.55h.35v5.11h-.34l-1.95-2.98c-.38-.59-.73-1.12-.99-1.65h-.02c.04.64.05,1.19.05,2.04v2.59h-.35Z"/>
  </g>
  <g>
    <path class="cls-1" d="M1.56,12.97H0c.01-.38.02-1.21.03-2.49s.01-2.83.01-4.63c0-.74,0-1.59-.01-2.56,0-.97-.02-1.95-.03-2.95h1.56c-.01.96-.02,2.05-.03,3.26,0,1.21,0,2.26,0,3.14,0,1.81,0,3.21.01,4.19s.02,1.66.02,2.04ZM9.73,12.1l-1.09,1.04c-1.5-1.46-2.95-2.82-4.35-4.08s-2.19-1.99-2.39-2.17v-.04c.39-.39,1.22-1.25,2.5-2.57,1.28-1.33,2.56-2.68,3.83-4.07l1.06.95c-1.08,1.04-2.19,2.14-3.33,3.31-1.14,1.17-1.86,1.91-2.15,2.21v.03c.15.14.77.71,1.87,1.72,1.1,1.01,2.45,2.24,4.05,3.68Z"/>
    <path class="cls-1" d="M24.61,12.47l-1.47.76c-.03-.07-.23-.54-.6-1.4s-.87-1.98-1.49-3.35h-5.58c-.66,1.46-1.17,2.6-1.53,3.4-.36.8-.56,1.25-.6,1.35l-1.26-.68c.16-.33.84-1.77,2.02-4.32,1.18-2.55,2.41-5.24,3.69-8.05h1.23c1.26,2.81,2.49,5.54,3.71,8.18,1.21,2.64,1.84,4.01,1.9,4.12ZM20.51,7.27c-.33-.77-.68-1.57-1.05-2.41-.37-.84-.76-1.71-1.17-2.62h-.04c-.32.7-.7,1.55-1.14,2.56-.45,1.01-.82,1.83-1.11,2.47h0s4.52,0,4.52,0h0Z"/>
    <path class="cls-1" d="M36.58,12.95c-.08,0-.47,0-1.19,0-.72,0-1.64,0-2.76,0-.74,0-1.43,0-2.1,0-.66,0-1.22,0-1.68,0,.01-1.08.02-2.18.03-3.29,0-1.11.01-2.2.01-3.27,0-1.78,0-3.15-.02-4.08-.01-.94-.02-1.59-.03-1.97h1.56c-.01.81-.02,1.75-.03,2.81,0,1.06,0,1.93,0,2.61,0,1.65,0,3.03,0,4.14,0,1.11,0,1.69,0,1.75.26,0,.57,0,.93,0,.36,0,.69,0,.99,0,1.12,0,2.1,0,2.94-.01.83,0,1.28-.01,1.33-.01v1.32Z"/>
    <path class="cls-1" d="M52.36,6.67c0,1.02-.17,1.95-.52,2.8-.35.85-.8,1.55-1.36,2.11-.62.62-1.28,1.06-1.98,1.34-.7.28-1.44.42-2.24.42s-1.51-.13-2.2-.4-1.31-.66-1.87-1.19c-.61-.57-1.1-1.29-1.47-2.16-.37-.87-.56-1.85-.56-2.94,0-.97.15-1.85.44-2.64.29-.79.74-1.51,1.33-2.14.55-.59,1.2-1.05,1.95-1.37.75-.32,1.55-.49,2.38-.49s1.63.15,2.35.46c.72.31,1.35.73,1.87,1.27.62.63,1.08,1.37,1.4,2.22.32.85.48,1.76.48,2.72ZM50.75,6.82c0-.82-.14-1.62-.41-2.41-.27-.79-.69-1.45-1.25-1.98-.38-.36-.8-.65-1.27-.85-.47-.2-.99-.3-1.57-.3s-1.09.1-1.58.31c-.49.2-.93.5-1.33.9-.5.5-.89,1.13-1.18,1.87-.28.74-.42,1.51-.42,2.32,0,.91.14,1.72.43,2.43s.69,1.32,1.21,1.82c.36.35.78.62,1.27.83.49.21,1.02.32,1.58.32s1.08-.1,1.57-.31c.49-.2.93-.5,1.33-.88.47-.45.86-1.03,1.16-1.73.3-.7.45-1.48.45-2.33Z"/>
    <path class="cls-1" d="M64.04,9.42c0,.65-.15,1.21-.46,1.7-.31.49-.72.88-1.23,1.18-.47.28-1.01.49-1.62.63s-1.29.21-2.03.21c-.4,0-.82-.01-1.25-.04-.43-.03-.68-.04-.75-.05l-.08-1.36c.09.01.33.04.74.07.4.03.88.05,1.42.05.33,0,.76-.04,1.29-.13.53-.09.93-.2,1.22-.34.37-.18.66-.4.85-.66.2-.26.3-.58.3-.98,0-.42-.1-.78-.3-1.07s-.53-.57-.99-.84c-.3-.18-.68-.37-1.15-.59-.47-.22-.9-.45-1.27-.68-.64-.39-1.1-.82-1.37-1.28s-.41-.98-.41-1.54.12-1.08.37-1.5c.25-.42.57-.79.97-1.09.4-.3.89-.53,1.48-.68s1.23-.23,1.94-.23c.39,0,.79.01,1.18.03.4.02.63.04.68.04l.13,1.37c-.06,0-.29-.03-.69-.07-.4-.04-.9-.06-1.49-.06-.35,0-.72.04-1.09.12-.37.08-.7.2-.99.36-.25.14-.47.35-.64.6-.18.26-.26.56-.26.91,0,.31.09.61.28.89.19.29.53.58,1.04.88.26.16.6.34,1.02.54.42.2.84.43,1.25.66.63.37,1.1.8,1.42,1.28.32.48.48,1.03.48,1.65Z"/>
    <path class="cls-1" d="M70.95,12.97h-1.56c0-.38.02-1.05.03-2.02.01-.97.02-2.36.02-4.17,0-.72,0-1.66,0-2.82,0-1.16-.02-2.37-.04-3.62h1.56c-.01.9-.02,1.94-.03,3.13,0,1.19-.01,2.16-.01,2.92,0,1.91,0,3.39.02,4.44.01,1.05.02,1.76.03,2.14Z"/>
    <path class="cls-1" d="M87.58.35c0,1.21,0,2.2-.02,2.99-.01.79-.02,1.48-.02,2.06,0,.72,0,1.33,0,1.83,0,.51,0,.94,0,1.32,0,.73-.11,1.37-.33,1.93s-.55,1.04-.99,1.46c-.44.41-.98.74-1.62.98s-1.38.35-2.23.35-1.58-.12-2.23-.35-1.18-.56-1.63-.98c-.44-.41-.77-.9-.99-1.46s-.33-1.2-.33-1.93c0-.37,0-.81,0-1.32,0-.51,0-1.12,0-1.83,0-.58,0-1.27-.02-2.06-.01-.79-.02-1.79-.02-2.99h1.56c0,.16-.01.69-.02,1.61s-.01,2.12-.01,3.61c0,.45,0,.92,0,1.4,0,.48,0,.98,0,1.49,0,1.15.33,2.02.99,2.62s1.55.89,2.68.89c1.22,0,2.13-.28,2.74-.85.61-.57.91-1.45.91-2.66,0-.51,0-1.01,0-1.49,0-.48,0-.95,0-1.4,0-1.49,0-2.71-.02-3.66-.01-.95-.02-1.47-.02-1.56h1.56Z"/>
    <path class="cls-1" d="M49.97,6.67c-3.62.07-3.66.12-3.71,4.71-.05-4.59-.1-4.64-3.71-4.71,3.62-.07,3.66-.12,3.71-4.71.05,4.59.1,4.64,3.71,4.71Z"/>
  </g>
</svg>