<svg width="92" height="92" viewBox="0 0 92 92" fill="none" xmlns="http://www.w3.org/2000/svg">
<circle cx="46" cy="46" r="46" fill="#63A9C6" fill-opacity="0.9"/>
<circle cx="46" cy="46" r="43.75" stroke="white" stroke-width="0.5"/>
<path d="M15.2253 39.1733C16.1548 38.5863 17.059 38.0368 17.8871 37.5998C18.8602 37.0695 19.6402 36.8048 20.567 36.6257C22.5935 36.2341 24.1094 37.1635 24.4432 38.8915C24.8348 40.918 23.5822 42.4474 21.0215 42.9422C20.7073 43.0029 20.5345 43.0363 20.3273 43.06C20.0415 43.0989 19.9477 43.0356 19.8485 42.8592C19.5477 42.3144 19.2899 41.9079 18.7873 41.4998C19.4998 41.4762 19.9645 41.4353 20.5614 41.32C22.0067 41.0407 22.7934 40.2206 22.581 39.121C22.4201 38.2884 21.7037 37.9542 20.6983 38.1484C19.8657 38.3093 19.2393 38.6096 18.4583 39.0375C17.6078 39.5278 16.9398 39.9501 16.0665 40.5752C17.3544 42.7707 18.5648 44.8183 19.8522 47.0954C19.9545 47.2875 19.9823 47.3473 19.7836 47.4998C19.4304 47.7799 19.0051 48.025 18.5298 48.2635C18.4228 48.3004 18.3696 48.2781 18.2921 48.1301C17.0712 45.775 15.9859 43.7847 14.6823 41.5922C14.14 41.9903 13.6828 42.3231 13.3265 42.5875C12.9702 42.8519 12.8186 42.9952 12.6037 43.2323C12.512 43.3478 12.4141 43.4319 12.3356 43.4471C12.2413 43.4653 12.0691 43.4171 11.913 43.2843C11.4292 42.8889 11.0559 42.3907 10.6573 41.9299C11.3399 41.6676 11.5918 41.5375 12.1179 41.224C12.4392 41.0316 12.9369 40.7398 13.8006 40.1493C13.5028 39.6202 13.1615 39.0343 12.6864 38.2624C12.5218 38.0009 12.2265 37.569 11.7118 37.0981C12.36 36.8262 13.1587 36.5741 13.7714 36.4558C13.9128 36.4284 14.0283 36.5202 14.0708 36.7401C14.1102 36.9443 14.1629 37.0482 14.2338 37.2464C14.3948 37.5738 14.4875 37.8003 14.7817 38.3953C14.9675 38.7668 15.1073 38.9842 15.2253 39.1733ZM15.8416 35.6158C16.2147 35.1852 16.5878 34.7546 16.8783 34.4866C16.9477 34.4243 16.9918 34.3995 17.0389 34.3904C17.086 34.3813 17.1362 34.3879 17.2239 34.4198C17.7903 34.6526 18.6161 35.0471 19.1967 35.5216C19.256 35.5753 19.2965 35.6164 19.3086 35.6792C19.3208 35.7421 19.2985 35.7953 19.2635 35.8672C19.0414 36.236 18.7378 36.6043 18.3936 36.9316C18.3525 36.9721 18.3115 37.0126 18.2643 37.0217C18.2329 37.0278 18.1797 37.0055 18.1235 36.9674C17.4522 36.4453 16.7557 35.9606 15.8416 35.6158ZM33.7132 34.4931C33.3369 33.9792 33.0289 33.5661 32.6622 33.0177C32.3543 32.6046 32.1334 32.3051 31.6309 31.897C32.3733 31.6069 33.0276 31.3664 33.4517 31.2844C33.8602 31.2055 34.0071 31.2912 34.0496 31.5111C34.0769 31.6525 34.0916 31.8127 34.1503 31.948C34.2339 32.1274 34.3392 32.3352 34.5534 32.6849C34.833 33.1197 35.0472 33.4695 35.3334 33.8541C36.6992 33.248 37.6723 32.7178 38.4285 32.2458C38.5704 32.1369 38.6206 32.1435 38.7482 32.2981C38.963 32.5662 39.2106 33.0887 39.3747 33.4318C39.4521 33.5798 39.4045 33.6705 39.3006 33.7232C38.6012 34.1516 37.7446 34.6105 36.3504 35.2383C37.2191 36.2764 38.211 37.1929 39.3944 38.0887C39.5444 38.19 39.707 38.2727 39.8697 38.3553C39.9791 38.4157 40.051 38.4507 40.0662 38.5292C40.0874 38.6392 40.0555 38.7268 40.0235 38.8145C39.9652 39.1028 39.7481 39.6662 39.6082 39.954C39.5159 40.1511 39.4495 40.2291 39.3395 40.2503C39.261 40.2655 39.2078 40.2432 39.0639 40.1732C38.8323 40.0713 38.6697 39.9886 38.3409 39.8892C37.2166 39.5524 36.0182 39.5069 34.8557 39.7315C33.2219 40.0472 32.3263 40.7254 32.5175 41.7151C32.7451 42.8933 34.2688 43.1041 36.7352 42.6275C37.5049 42.4788 38.4166 42.2212 39.2062 41.922C39.2648 42.5625 39.2443 43.2998 39.2011 43.6666C39.1843 43.8328 39.1275 43.8764 38.9451 43.9442C38.6714 44.046 37.8824 44.2636 37.2226 44.3911C33.5151 45.1074 31.2924 44.3147 30.8918 42.241C30.5457 40.4502 31.8424 38.8959 34.4345 38.3951C35.707 38.1493 36.6231 38.1678 37.3127 38.279C36.4034 37.7051 35.608 36.9625 34.749 35.89C33.7927 36.254 32.9058 36.5557 31.7929 36.8685C31.3748 36.9819 30.6613 37.1686 30.2686 37.2445C30.1272 37.2718 30.0461 37.1897 29.9626 37.0103C29.7114 36.5537 29.5691 36.2389 29.3281 35.6663C30.1354 35.5429 30.7764 35.4027 31.2888 35.2712C31.9425 35.1123 32.7097 34.8662 33.7132 34.4931ZM47.4939 28.8973C48.2317 28.8362 49.0009 28.769 49.5122 28.8006C49.7914 28.8119 49.9165 28.8692 49.9469 29.0263C49.9803 29.1991 49.9224 29.4058 49.89 29.575C49.8539 29.8101 49.8852 30.3093 50.0403 31.5341C50.3507 33.9837 50.5817 35.6012 50.9793 37.6592C51.2859 39.2458 51.5442 39.5707 52.801 39.3279C54.1991 39.0578 56.2188 37.7876 57.7408 35.375C57.919 35.9598 58.1605 36.4509 58.3905 36.7976C58.5024 36.9552 58.5708 37.0561 58.589 37.1504C58.6163 37.2917 58.5777 37.4296 58.3689 37.6981C56.9727 39.5811 54.9125 40.8103 52.8703 41.2048C50.8595 41.5933 49.7621 40.9743 49.2977 38.5707C48.7878 35.9315 48.4921 33.6421 48.2064 31.7417C48.0588 30.8088 47.9116 29.7943 47.4939 28.8973ZM62.7032 27.4905C63.4754 27.439 64.2816 27.4788 64.7984 27.6234C64.952 27.6589 65.0832 27.7477 65.1044 27.8576C65.1226 27.9519 65.1059 28.1181 65.0637 28.3218C65.0373 28.5224 65.0893 29.2131 65.2198 29.8886C65.4141 30.894 65.664 32.019 66.1946 33.4157C66.6543 34.6143 67.2692 35.6036 67.929 35.4761C68.4317 35.379 68.7182 34.7533 69.0152 33.0011C69.467 33.4842 69.8824 33.7787 70.2543 34.0165C70.4762 34.1529 70.5126 34.3414 70.4766 34.5765C70.1892 36.2942 69.3791 37.3307 68.2795 37.5432C67.0541 37.7799 65.4867 36.5836 64.5496 34.0106C64.0099 32.5668 63.5685 30.9573 63.2893 29.512C63.1224 28.648 62.9999 28.1828 62.7032 27.4905ZM71.1774 28.1672C71.7015 27.6748 72.0518 27.379 72.2789 27.2048C72.3356 27.1612 72.3924 27.1176 72.4395 27.1085C72.5024 27.0964 72.5556 27.1187 72.6305 27.1694C74.2999 28.1342 75.9755 30.0593 76.7476 31.9471C76.8342 32.1422 76.7521 32.2233 76.6416 32.3261C76.2848 32.6721 75.9345 32.9679 75.5377 33.1913C75.3613 33.2905 75.2422 33.2646 75.1744 33.0822C74.2062 30.9389 73.0894 29.4599 71.1774 28.1672ZM24.6176 57.3374L25.1675 57.2311C25.9372 57.0824 26.8139 56.8967 27.5305 56.7257C27.716 56.6736 27.7499 56.7648 27.799 56.9345C27.9063 57.3212 27.9943 57.7768 28.0388 58.1756C28.0625 58.3829 28.0432 58.4518 27.8203 58.4785C27.2862 58.5817 26.3248 58.7512 25.5551 58.8999L24.911 59.0244C25.2508 61.289 25.1601 62.6754 24.6362 64.0966C24.1027 65.5522 23.0123 66.7407 21.4933 67.7349C21.2916 67.8716 21.175 67.943 21.0808 67.9612C20.9865 67.9794 20.8989 67.9475 20.7489 67.8461C20.1835 67.4502 19.8426 67.2879 19.2629 67.1555C21.3601 66.0332 22.4149 64.9983 22.9672 63.5554C23.3857 62.4316 23.4276 61.2991 23.1201 59.3704L19.774 60.0169L19.8833 60.5824C20.0623 61.5093 20.2262 62.3576 20.4342 63.1811C20.4833 63.3509 20.3794 63.4035 20.2097 63.4526C19.8073 63.563 19.2889 63.6631 18.8587 63.7136C18.6514 63.7374 18.5511 63.7242 18.5334 63.5484C18.4227 62.7224 18.3054 61.9465 18.1142 60.9568L17.9988 60.3599L17.5275 60.4509C16.6792 60.6148 15.4316 60.9048 14.9507 61.0303C14.825 61.0546 14.7596 60.9694 14.7045 60.7682C14.5779 60.4505 14.4559 59.9037 14.3001 59.2657C14.969 59.1853 15.9962 59.0194 17.2058 58.7857L17.6771 58.6947L17.4555 57.5479C17.2613 56.5425 17.154 56.1558 16.8208 55.275C17.6529 55.1957 18.4378 55.1255 18.7859 55.1561C18.9648 55.1541 19.0428 55.2205 19.0641 55.3305C19.0823 55.4247 19.0564 55.5438 19.0336 55.6786C18.9782 55.9826 19.0086 56.1397 19.215 57.2079L19.4365 58.3547L22.8141 57.7021L22.5323 56.1596C22.3781 55.2768 22.1913 54.5633 21.9751 54.0347C22.5842 53.9822 23.4665 53.9095 23.8647 53.9466C24.0938 53.9513 24.1718 54.0177 24.1961 54.1433C24.2082 54.2062 24.2107 54.3035 24.1879 54.4383C24.1356 54.758 24.1988 55.1695 24.3293 55.845L24.6176 57.3374ZM37.4255 54.6346L37.2828 53.8963C37.0916 52.9066 36.9206 52.19 36.6426 51.5104C37.3931 51.4306 38.2282 51.367 38.6361 51.3697C38.9624 51.3718 39.0242 51.5228 38.9248 51.8517C38.835 52.146 38.8891 52.5104 39.0712 53.453L39.2321 54.2856L41.1643 53.9122C42.5311 53.6482 43.5872 53.3789 44.3509 53.1988C44.4892 53.1558 44.5703 53.2379 44.6036 53.4107C44.6983 53.8161 44.7772 54.2245 44.8247 54.639C44.8484 54.8463 44.8226 54.9654 44.6624 54.98C43.6824 55.1368 42.4793 55.3203 41.4111 55.5267L39.5574 55.8849L40.1862 59.0552C40.3471 59.8878 40.509 60.5572 40.7458 61.7825C40.8945 62.5523 40.7119 63.1254 40.1315 63.5797C39.6835 63.9596 38.8776 64.3434 38.2209 64.4866C38.0324 64.523 37.9199 64.447 37.7801 64.2296C37.4382 63.7253 37.0203 63.3334 36.4544 63.0191C37.5227 62.8127 38.2017 62.6163 38.5545 62.4178C38.7846 62.2592 38.8612 62.0652 38.7822 61.6567L37.7351 56.237L35.2687 56.7135C34.3733 56.8865 33.2984 57.1431 32.5722 57.3486C32.4308 57.3759 32.3437 57.2624 32.3073 57.0738C32.2369 56.7941 32.0532 56.0963 31.9531 55.5779C33.1652 55.4415 34.1265 55.272 34.9277 55.1172L37.4255 54.6346ZM34.2548 58.2131C34.9383 58.2929 35.5869 58.4446 36.0282 58.6201C36.3129 58.7443 36.4375 58.8832 36.1972 59.1577C36.0644 59.3138 35.9848 59.4921 35.9077 59.7678C35.6601 60.6793 35.1814 61.9125 34.6708 62.7281C34.5218 62.9688 34.4052 63.0402 34.1392 62.9286C33.626 62.7182 33.1375 62.5518 32.6764 62.5268C33.4055 61.4082 33.8132 60.4821 34.0765 59.5675C34.2301 59.0978 34.2733 58.731 34.2548 58.2131ZM41.5968 57.8375C41.9603 57.4413 42.3171 57.0953 42.6268 56.7585C42.788 56.5807 42.9228 56.6035 43.0788 56.7363C43.9761 57.2474 44.9274 58.1228 45.8807 59.1771C46.0677 59.3854 46.0418 59.5045 45.8963 59.6793C45.6905 59.9635 45.3113 60.3627 44.9955 60.6681C44.844 60.8115 44.7715 60.8581 44.6221 60.6751C43.8532 59.7318 42.7433 58.6263 41.5968 57.8375ZM42.6384 49.2275C43.581 49.0454 44.4777 49.6381 44.6598 50.5806C44.8419 51.5232 44.2305 52.4072 43.2879 52.5893C42.3454 52.7715 41.4487 52.1788 41.2666 51.2362C41.0784 50.2623 41.6958 49.4096 42.6384 49.2275ZM42.7841 49.9816C42.25 50.0848 41.9331 50.5534 42.0363 51.0875C42.1395 51.6216 42.6081 51.9385 43.1423 51.8353C43.6764 51.7321 43.9932 51.2635 43.89 50.7294C43.7868 50.1952 43.3182 49.8784 42.7841 49.9816ZM58.7616 54.9121L53.1062 56.0048C51.5509 56.3053 50.9904 56.6092 50.8333 56.6395C50.6448 56.6759 50.5009 56.606 50.4082 56.3794C50.2599 56.0333 50.023 55.3132 49.8053 54.5241C50.8568 54.4839 51.6483 54.3636 53.235 54.057L58.2934 53.0797C59.4874 52.849 60.6909 52.5839 61.8975 52.3344C62.1301 52.2732 62.1864 52.3112 62.2228 52.4997C62.3453 52.965 62.4485 53.4991 62.5081 53.9764C62.5445 54.1649 62.4938 54.2399 62.2708 54.2667C61.0896 54.4786 59.9241 54.6875 58.7616 54.9121ZM72.1109 46.6619L72.5449 48.9084C74.5768 49.135 76.219 49.4533 77.9533 50.0797C78.1443 50.1405 78.2441 50.2353 78.205 50.4547C78.101 51.0126 77.9437 51.5482 77.7936 51.952C77.752 52.0741 77.7013 52.1491 77.6228 52.1642C77.5756 52.1733 77.5098 52.1698 77.4348 52.1191C75.8104 51.4715 74.263 51.0534 72.9147 50.9065L73.5855 54.3783C73.7828 55.3994 73.9933 56.3202 74.2432 57.4452C74.2954 57.6307 74.2259 57.693 74.006 57.7355C73.5565 57.8549 73.0695 57.949 72.6078 58.0056C72.3879 58.0481 72.3002 58.0162 72.2638 57.8277C72.0863 56.6561 71.923 55.7262 71.7287 54.7208L70.2354 46.9917C70.0077 45.8135 69.8604 45.3042 69.6291 44.6971C70.3608 44.6046 71.1615 44.5314 71.6413 44.569C71.8704 44.5736 71.9671 44.6527 71.9914 44.7784C72.0096 44.8727 71.9868 45.0074 71.9355 45.164C71.865 45.3895 71.9409 45.7822 72.1109 46.6619Z" fill="white"/>
</svg>
