<svg width="316" height="92" viewBox="0 0 316 92" fill="none" xmlns="http://www.w3.org/2000/svg">
<circle cx="46" cy="46" r="46" fill="#63A9C6" fill-opacity="0.9"/>
<circle cx="46" cy="46" r="43.75" stroke="white" stroke-width="0.5"/>
<path d="M15.262 43.1587L13.5968 43.4804C12.1515 43.7597 11.6706 43.8852 11.5764 43.9034C11.4036 43.9368 11.3848 43.9241 11.3514 43.7513L11.1299 42.6045C11.0995 42.4474 11.1122 42.4287 11.285 42.3953C11.3792 42.3771 11.8723 42.3144 13.3176 42.0352L22.3505 40.2899C23.7801 40.0137 24.2767 39.8851 24.371 39.8669C24.5281 39.8366 24.5468 39.8493 24.5772 40.0063L24.7987 41.1531C24.8321 41.3259 24.8194 41.3447 24.6624 41.375C24.5681 41.3933 24.0593 41.459 22.6298 41.7352L20.3833 42.1692L20.9934 45.3268C21.0693 45.7195 21.1184 45.8893 21.2557 46.0095C21.4244 46.1235 21.8733 46.0857 22.7373 45.9187C23.4443 45.7821 23.8406 45.6404 24.0114 45.4281C24.2329 45.1409 24.2295 44.7015 24.0515 43.6115C24.3707 43.7454 24.7938 43.8266 25.2235 43.8577C25.6471 43.8573 25.6471 43.8573 25.7103 44.2688C25.8539 45.3492 25.762 45.9699 25.433 46.3757C24.9899 46.9501 24.3605 47.2347 22.7267 47.5504C21.0929 47.866 20.4843 47.837 20.1094 47.5835C19.7877 47.3523 19.5989 46.9651 19.438 46.1325L18.7338 42.4879L16.9272 42.837C17.1709 44.4358 17.0251 45.6209 16.5926 46.503C16.0698 47.761 14.9846 48.6388 13.5579 49.436C13.3972 49.5322 13.2933 49.5848 13.2148 49.6C13.0734 49.6273 12.9923 49.5452 12.7963 49.2898C12.5319 48.9335 12.2386 48.6805 11.8232 48.386C13.3999 47.6902 14.4054 46.9908 14.8977 46.0809C15.3394 45.2459 15.4516 44.3931 15.262 43.1587ZM17.4703 35.6107L21.0363 34.9217C22.4973 34.6395 23.0253 34.5048 23.1196 34.4866C23.2767 34.4563 23.2954 34.4689 23.3258 34.626C23.344 34.7203 23.3672 35.0091 23.4583 35.4804L23.5918 36.1716C23.868 37.6012 23.948 37.8465 23.9662 37.9407C23.9966 38.0978 23.9839 38.1166 23.8268 38.1469L22.5229 38.3989C22.3658 38.4292 22.3471 38.4165 22.3167 38.2594L21.9312 36.2643L12.16 38.1523L12.5454 40.1474C12.5788 40.3202 12.5661 40.3389 12.4091 40.3693L11.1052 40.6212C10.9481 40.6515 10.9293 40.6389 10.8959 40.4661C10.8777 40.3718 10.8636 40.1301 10.5844 38.6848L10.4751 38.1193C10.3598 37.5223 10.2737 37.2456 10.2555 37.1514C10.2252 36.9943 10.2378 36.9755 10.3949 36.9452C10.4892 36.927 11.0294 36.8552 12.4904 36.5729L15.8208 35.9294L15.7904 35.7723C15.6599 35.0968 15.5622 34.6757 15.3921 34.3012C15.9764 34.2046 16.548 34.1267 17.0912 34.0707C17.2356 34.0591 17.342 34.1037 17.3542 34.1665C17.3754 34.2765 17.3465 34.3799 17.3206 34.4989C17.2978 34.6337 17.3215 34.841 17.4399 35.4536L17.4703 35.6107ZM19.2987 39.5922L15.8584 40.2569C14.4445 40.53 13.9793 40.6525 13.885 40.6707C13.728 40.7011 13.7092 40.6884 13.6789 40.5313L13.4512 39.3531C13.4178 39.1803 13.4305 39.1616 13.5876 39.1312C13.6818 39.113 14.1592 39.0534 15.5731 38.7802L19.0134 38.1155C20.4116 37.8453 20.8925 37.7198 20.9868 37.7016C21.1438 37.6713 21.1469 37.687 21.1803 37.8598L21.4079 39.038C21.4383 39.1951 21.4413 39.2108 21.2842 39.2411C21.1899 39.2593 20.6969 39.322 19.2987 39.5922ZM34.8331 31.1805L34.7003 31.3365C36.9779 33.3409 39.3881 34.2603 42.3284 34.7189C42.0998 35.1379 41.9588 35.5888 41.8836 36.0433C41.8283 36.3473 41.8054 36.4821 41.6798 36.5064C41.6012 36.5216 41.4791 36.48 41.2754 36.4378C40.4576 36.2536 39.6621 36.0162 38.9077 35.7383L39.1293 36.8851C39.1596 37.0422 39.147 37.0609 39.0056 37.0882C38.9113 37.1065 38.4026 37.1722 36.9573 37.4514L35.8419 37.6669L36.1819 39.4264L37.9727 39.0804C39.4966 38.7859 40.0089 38.6544 40.1032 38.6361C40.276 38.6028 40.2947 38.6154 40.3251 38.7725L40.5557 39.9664C40.5861 40.1235 40.5734 40.1423 40.4006 40.1757C40.3064 40.1939 39.7819 40.2626 38.2581 40.557L36.4672 40.9031L36.8375 42.8196L40.5763 42.0972C42.0059 41.821 42.5025 41.6925 42.5968 41.6743C42.7539 41.6439 42.7726 41.6566 42.803 41.8137L43.0397 43.039C43.0701 43.1961 43.0574 43.2149 42.9003 43.2452C42.806 43.2634 42.2973 43.3291 40.8677 43.6053L31.8976 45.3385C30.4523 45.6177 29.9557 45.7463 29.8614 45.7645C29.7044 45.7948 29.6856 45.7821 29.6553 45.625L29.4185 44.3997C29.3882 44.2426 29.4008 44.2239 29.5579 44.1935C29.6522 44.1753 30.161 44.1096 31.6062 43.8304L35.1566 43.1444L34.7863 41.2278L33.1996 41.5344C31.6758 41.8288 31.1634 41.9604 31.0692 41.9786C30.9121 42.009 30.8933 41.9963 30.863 41.8392L30.6323 40.6453C30.602 40.4882 30.6146 40.4694 30.7717 40.4391C30.866 40.4209 31.3905 40.3521 32.9143 40.0577L34.5009 39.7511L34.161 37.9917L33.1556 38.1859C31.7103 38.4652 31.2294 38.5907 31.1351 38.6089C30.9781 38.6393 30.9593 38.6266 30.929 38.4695L30.7317 37.4484C30.1949 37.9595 29.6363 38.4422 29.0245 38.9026C28.8512 39.0176 28.7534 39.1017 28.6591 39.1199C28.5492 39.1411 28.4651 39.0433 28.2848 38.7848C28.0143 38.3971 27.6774 38.0874 27.3618 37.8876C30.0415 35.9847 31.5688 34.1904 32.5247 31.9687C32.7159 31.5244 32.8473 31.1079 32.9031 30.7223C33.5153 30.6855 34.1178 30.6832 34.6164 30.7335C34.8297 30.7412 34.9234 30.8045 34.9447 30.9145C34.9629 31.0088 34.9279 31.0807 34.8331 31.1805ZM32.8703 36.7093L36.672 35.9747C37.7559 35.7653 38.287 35.6464 38.5384 35.5978C36.8578 34.9122 35.345 33.9986 34.0852 32.7916C33.3499 34.384 32.3649 35.7803 31.1549 37.0244C31.4407 36.9855 31.9591 36.8853 32.8703 36.7093ZM54.9253 32.6109L54.6268 32.6686L54.897 34.0667L54.9284 34.0607C55.8552 33.8816 56.1319 33.7955 56.2419 33.7743C56.399 33.7439 56.4177 33.7566 56.4481 33.9137C56.4693 34.0237 56.4986 34.3439 56.6504 35.1294L56.9175 36.5118C57.0693 37.2973 57.1644 37.6211 57.1826 37.7154C57.2099 37.8568 57.1973 37.8755 57.0402 37.9059C56.9302 37.9271 56.6414 37.9504 55.7145 38.1294L54.3164 38.3996C53.3895 38.5786 53.1128 38.6647 53.0028 38.6859C52.8457 38.7163 52.827 38.7036 52.7997 38.5622C52.7784 38.4523 52.7492 38.132 52.5974 37.3465L52.3303 35.9641C52.1785 35.1786 52.0864 34.8705 52.0652 34.7605C52.0348 34.6035 52.0475 34.5847 52.2046 34.5544C52.3303 34.5301 52.6191 34.5069 53.546 34.3278L53.2758 32.9296L53.0402 32.9752C51.8777 33.1998 51.4753 33.3101 51.381 33.3283C51.2239 33.3587 51.2052 33.346 51.1748 33.1889L50.9897 32.2306C50.9593 32.0735 50.972 32.0548 51.1291 32.0244C51.2234 32.0062 51.6379 31.9587 52.8004 31.7341L53.036 31.6886L53.0117 31.5629C52.8539 30.746 52.7563 30.3249 52.5867 29.8688C53.0767 29.7904 53.554 29.7308 53.9873 29.6959C54.1317 29.6843 54.2194 29.7163 54.2376 29.8105C54.2528 29.8891 54.2208 29.9768 54.2106 30.0928C54.2035 30.2245 54.2201 30.5635 54.3597 31.2862L54.387 31.4276L54.6855 31.3699C55.8323 31.1483 56.2347 31.038 56.3289 31.0198C56.486 30.9894 56.5048 31.0021 56.5351 31.1592L56.7203 32.1175C56.7506 32.2746 56.738 32.2933 56.5809 32.3237C56.4866 32.3419 56.0721 32.3894 54.9253 32.6109ZM55.6723 36.8991L55.3415 35.1868L53.5663 35.5297L53.8972 37.2421L55.6723 36.8991ZM52.2746 42.0858L51.0964 42.3135C50.9393 42.3438 50.9205 42.3312 50.8902 42.1741C50.872 42.0798 50.7061 41.0526 49.8987 36.8739L49.1308 32.8994C48.5905 30.1031 48.3588 29.0724 48.3375 28.9624C48.3072 28.8053 48.3199 28.7866 48.477 28.7562C48.5712 28.738 49.1271 28.6632 50.6352 28.3718L55.4423 27.443C56.9661 27.1486 57.5099 27.0109 57.6042 26.9927C57.7613 26.9624 57.78 26.9751 57.8104 27.1321C57.8316 27.2421 58.0066 28.3164 58.474 30.7357L59.3026 35.0244C60.0979 39.1403 60.3266 40.1553 60.3448 40.2496C60.3721 40.3909 60.3594 40.4097 60.2023 40.44L58.9927 40.6737C58.8356 40.7041 58.8169 40.6914 58.7895 40.55L58.6651 39.906L52.2713 41.1413L52.414 41.8796C52.4444 42.0367 52.4317 42.0555 52.2746 42.0858ZM50.1103 29.9562L51.9982 39.7274L58.3919 38.4921L56.504 28.7208L50.1103 29.9562ZM47.5885 40.3513L46.9298 36.9424C46.8145 36.3454 46.6657 35.5756 46.5388 34.8343C46.3476 35.2786 46.122 35.7133 45.8806 36.151C45.7792 36.301 45.7159 36.3947 45.653 36.4068C45.5745 36.422 45.4934 36.3399 45.4099 36.1605C45.1683 35.6694 44.8731 35.2376 44.6395 34.9568C45.5532 33.444 46.139 31.6686 46.4453 29.4584C46.5011 29.0728 46.5413 28.6902 46.4968 28.2914C47.0552 28.3139 47.5508 28.3485 48.0241 28.4363C48.209 28.4658 48.3124 28.4947 48.3366 28.6204C48.3579 28.7303 48.3072 28.8053 48.2185 28.9365C48.1267 29.052 48.0755 29.2086 48.013 29.6443C47.8856 30.4186 47.749 31.1457 47.5846 31.813L49.1751 40.0448C49.4726 41.5843 49.6527 42.348 49.6679 42.4265C49.6982 42.5836 49.6856 42.6024 49.5285 42.6327L48.2246 42.8846C48.0675 42.915 48.0487 42.9023 48.0184 42.7452C48.0002 42.651 47.8859 41.8908 47.5885 40.3513ZM75.8456 36.9776L66.1057 38.8595C64.7233 39.1266 64.2423 39.2521 64.1481 39.2703C63.991 39.3006 63.9879 39.2849 63.9576 39.1278L63.7269 37.9339C63.6966 37.7768 63.6966 37.7768 63.8537 37.7465C63.9479 37.7282 64.4379 37.6499 65.8204 37.3828L69.7792 36.6179L69.5242 35.2983L67.4034 35.708C65.8796 36.0025 65.3515 36.1371 65.2416 36.1583C65.0845 36.1887 65.0657 36.176 65.0354 36.0189L64.8229 34.9192C64.7895 34.7464 64.8022 34.7277 64.9593 34.6973C65.0693 34.6761 65.6095 34.6043 67.1333 34.3099L69.2541 33.9001C69.1418 33.3189 69.0375 32.9479 68.9079 32.6145C69.4607 32.5239 70.0009 32.4522 70.5599 32.3931C70.72 32.3784 70.8264 32.423 70.8416 32.5016C70.8628 32.6116 70.8309 32.6992 70.805 32.8183C70.7664 32.9561 70.7871 33.1477 70.8721 33.5875L73.1971 33.1383C74.7367 32.8408 75.2647 32.7062 75.359 32.688C75.5161 32.6577 75.5348 32.6703 75.5682 32.8431L75.7807 33.9428C75.811 34.0999 75.7983 34.1186 75.6412 34.149C75.547 34.1672 75.0068 34.239 73.4673 34.5364L71.1423 34.9857L71.3972 36.3053L75.5602 35.5009C76.9584 35.2308 77.4423 35.121 77.5366 35.1028C77.6937 35.0724 77.6937 35.0724 77.724 35.2295L77.9547 36.4234C77.9851 36.5805 77.9881 36.5962 77.831 36.6266C77.7368 36.6448 77.2437 36.7075 75.8456 36.9776ZM66.9975 29.6429L66.7618 29.6884C65.4579 29.9404 64.9456 30.072 64.8356 30.0932C64.6785 30.1236 64.6598 30.1109 64.6295 29.9538L64.4261 28.9013C64.3957 28.7442 64.4084 28.7254 64.5655 28.6951C64.6755 28.6738 65.2 28.6051 66.5038 28.3531L71.5309 27.3819C72.8348 27.1299 73.3471 26.9984 73.4414 26.9801C73.5984 26.9498 73.6172 26.9625 73.6475 27.1196L73.8509 28.1721C73.8813 28.3292 73.8686 28.3479 73.7115 28.3783C73.6172 28.3965 73.19 28.4627 72.1973 28.6383L72.2693 28.6732C73.2293 29.1722 74.3976 29.9894 75.3089 30.7422C75.4462 30.8623 75.4426 30.9282 75.2941 31.0873L74.5358 31.8856C74.4694 31.9636 74.4253 31.9884 74.3939 31.9945C74.3468 32.0036 74.2936 31.9813 74.2313 31.9119L73.3827 31.1469C70.8078 31.9052 67.9851 32.6461 65.317 33.2594C64.9902 33.3388 64.8518 33.3819 64.7697 33.4629C64.716 33.5222 64.6592 33.5657 64.5806 33.5809C64.4864 33.5991 64.4271 33.5454 64.3684 33.4101C64.1952 33.0198 63.9977 32.5039 63.8312 32.0635C64.4028 31.9857 64.9369 31.8825 65.471 31.7793C65.7538 31.7246 66.0523 31.667 66.3477 31.5936C66.6221 30.9051 66.8681 30.2383 66.9975 29.6429ZM71.946 28.6868L68.7412 29.306C68.5388 30.0295 68.3182 30.6588 68.0667 31.2126C69.4243 30.9014 70.8072 30.5527 72.1558 30.1944L71.2433 29.6048C71.0777 29.5064 71.1187 29.4659 71.286 29.3195L71.946 28.6868ZM69.2604 25.2458L72.9993 24.5234C74.4288 24.2472 74.9412 24.1156 75.0511 24.0944C75.2082 24.064 75.227 24.0767 75.2604 24.2495C75.2755 24.328 75.2927 24.5855 75.3686 24.9782L75.4869 25.5909C75.7389 26.8948 75.8128 27.1086 75.831 27.2029C75.8614 27.36 75.8487 27.3787 75.6916 27.4091L74.4348 27.6519C74.262 27.6853 74.2433 27.6726 74.2129 27.5155L73.8851 25.8189L63.7211 27.7827L64.0489 29.4793C64.0792 29.6364 64.0666 29.6551 63.9095 29.6855L62.6527 29.9283C62.4799 29.9617 62.4612 29.949 62.4308 29.7919C62.4126 29.6977 62.4015 29.4717 62.1496 28.1678L62.0525 27.6651C61.9554 27.1624 61.8754 26.9171 61.8602 26.8386C61.8268 26.6657 61.8395 26.647 62.0123 26.6136C62.1065 26.5954 62.631 26.5267 64.0763 26.2474L67.6109 25.5645L67.5745 25.376C67.4895 24.9361 67.3853 24.5652 67.2369 24.219C67.8212 24.1224 68.3928 24.0446 68.936 23.9885C69.0962 23.9739 69.2025 24.0185 69.2208 24.1127C69.242 24.2227 69.2101 24.3104 69.1842 24.4294C69.1456 24.5672 69.1663 24.7588 69.227 25.073L69.2604 25.2458ZM30.5656 55.6504L30.5595 55.619C28.7128 56.3506 27.0956 57.0053 25.4815 57.6756C24.9119 57.9324 24.7608 57.9941 24.5404 58.1182C24.4395 58.1866 24.3447 58.2864 24.219 58.3107C24.1091 58.3319 23.9652 58.2619 23.875 58.1327C23.5889 57.748 23.3098 57.2315 22.966 56.5484C23.7611 56.3622 24.2202 56.2083 25.4122 55.7987C27.2898 55.1426 30.6457 53.9564 34.5956 52.6392C34.8251 52.5623 34.9219 52.6414 34.9589 52.7483C35.1072 53.0944 35.2981 53.6605 35.3988 54.0973C35.4352 54.2858 35.35 54.3512 35.1458 54.3906C34.4166 54.5804 33.929 54.7561 33.296 55.1066C30.8015 56.5337 29.8213 58.6297 30.1855 60.5148C30.5771 62.5414 32.2348 63.3618 35.0016 63.0064C35.253 62.9579 35.3594 63.0025 35.3928 63.1753C35.4717 63.5838 35.5151 64.1457 35.481 64.5597C35.4794 64.8045 35.4348 64.9109 35.2463 64.9473C32.4814 65.4815 29.1429 64.4806 28.5116 61.2131C28.0806 58.9823 28.9046 57.2587 30.5656 55.6504ZM33.2775 57.4567L33.9978 56.7146C34.0642 56.6366 34.1301 56.6402 34.2395 56.7005C34.7994 56.9834 35.4863 57.5026 36.0567 58.0931C36.1378 58.1752 36.1529 58.2537 36.0581 58.3535L35.4924 58.968C35.3977 59.0678 35.3161 59.0673 35.2163 58.9725C34.6054 58.3409 33.9873 57.8411 33.2775 57.4567ZM34.5225 56.1407L35.1987 55.4234C35.2808 55.3423 35.331 55.3489 35.4404 55.4093C36.1066 55.7368 36.7936 56.2559 37.2454 56.739C37.3265 56.8211 37.3604 56.9123 37.2529 57.0309L36.7186 57.6393C36.6112 57.7578 36.5235 57.7258 36.4425 57.6437C35.8878 57.0502 35.2698 56.5503 34.5225 56.1407ZM54.9588 60.6171L54.4111 61.8311C54.3442 61.9907 54.256 62.0403 54.0807 61.9764C52.4751 61.3415 50.9378 60.8074 49.3149 60.4202C47.9523 61.9709 45.9682 63.0875 43.3106 64.0084C42.8327 64.1496 42.817 64.1527 42.5592 63.7462C42.3232 63.3681 42.0461 63.0305 41.7558 62.7933C44.3338 62.0508 46.1689 61.1747 47.4346 60.0502C46.6416 59.9101 45.839 59.8044 44.9796 59.7423L44.687 60.3366C44.6013 60.4835 44.5289 60.5301 44.2907 60.4784L43.2566 60.2708C42.9683 60.2124 42.9718 60.1465 43.0545 59.9839C43.2639 59.6338 43.4642 59.2366 43.6361 58.8612C43.8911 58.2416 44.1594 57.5216 44.4029 56.7575L42.8163 57.0641C41.4181 57.3342 40.9529 57.4567 40.8586 57.4749C40.7015 57.5053 40.6828 57.4926 40.6524 57.3355L40.4218 56.1416C40.3914 55.9845 40.4041 55.9657 40.5612 55.9354C40.6554 55.9172 41.1328 55.8575 42.5309 55.5874L44.8717 55.1351C44.9488 54.8595 45.0228 54.5682 45.0812 54.2799C45.2004 53.8005 45.3177 53.1423 45.3275 52.6027C45.9143 52.6034 46.5543 52.6264 47.0873 52.6864C47.2191 52.6935 47.3128 52.7569 47.331 52.8511C47.3492 52.9454 47.3046 53.0518 47.1971 53.1703C47.0866 53.2731 47.007 53.4515 46.904 53.8462L46.6625 54.7891L52.2237 53.7147C53.6218 53.4445 54.0713 53.3251 54.1813 53.3038C54.3384 53.2735 54.3571 53.2861 54.3875 53.4432L54.6182 54.6372C54.6485 54.7943 54.6358 54.813 54.4787 54.8434C54.3688 54.8646 53.9071 54.9212 52.509 55.1913L51.4879 55.3886C51.2716 56.7993 50.884 57.9986 50.303 59.0397C51.8134 59.3508 53.3294 59.7749 54.8732 60.2589C54.9609 60.2908 54.9984 60.3162 55.0105 60.379C55.0227 60.4418 55.0034 60.5107 54.9588 60.6171ZM49.7284 55.7286L46.1938 56.4115C45.9949 57.0692 45.7616 57.7172 45.5126 58.3683C46.5539 58.4441 47.5856 58.5544 48.5949 58.7179C49.1622 57.8587 49.5294 56.8914 49.7284 55.7286ZM47.2158 50.3149L50.719 49.6381C52.1957 49.3528 52.7238 49.2181 52.818 49.1999C52.9751 49.1696 52.9939 49.1822 53.0212 49.3236C53.0394 49.4179 53.0626 49.7067 53.1446 50.1309L53.269 50.775C53.5361 52.1574 53.613 52.387 53.6313 52.4812C53.6616 52.6383 53.6489 52.6571 53.4918 52.6874L52.188 52.9394C52.0309 52.9697 52.0121 52.957 51.9818 52.7999L51.6266 50.9619L41.9339 52.8347L42.289 54.6727C42.3194 54.8298 42.3067 54.8485 42.1496 54.8789L40.8457 55.1308C40.6886 55.1611 40.6699 55.1485 40.6395 54.9914C40.6183 54.8814 40.6072 54.6554 40.3401 53.273L40.2399 52.7546C40.1337 52.2047 40.0477 51.928 40.0294 51.8338C40.0021 51.6924 40.0148 51.6736 40.1719 51.6433C40.2819 51.622 40.8063 51.5533 42.283 51.268L45.5663 50.6336L45.5299 50.4451C45.3994 49.7696 45.286 49.3515 45.1159 48.977C45.7002 48.8804 46.2875 48.7995 46.8307 48.7434C47.0065 48.7258 47.0942 48.7577 47.1094 48.8363C47.1306 48.9462 47.0987 49.0339 47.0758 49.1687C47.053 49.3034 47.061 49.5137 47.1794 50.1264L47.2158 50.3149ZM63.4301 51.6635L64.4833 57.1147C64.5531 57.476 64.6899 57.6778 64.9123 57.7325C65.119 57.7904 65.5082 57.7804 66.3094 57.6256C67.1263 57.4677 67.5352 57.3072 67.738 57.0073C68.026 56.6421 68.054 56.1967 67.7019 54.3744C68.1214 54.5215 68.6073 54.5905 69.1029 54.6252C69.5326 54.6562 69.5326 54.6562 69.5958 55.0677C69.8759 56.855 69.7678 57.5603 69.3029 58.1064C68.8001 58.7088 68.0166 59.0394 66.5085 59.3308C64.9218 59.6373 64.2534 59.6361 63.8278 59.4576C63.3521 59.2725 63.0593 58.938 62.8833 58.0268L61.7177 51.9944C61.5599 51.1775 61.4562 50.7249 61.2775 50.2217C61.846 50.1281 62.4394 50.0787 62.973 50.0571C63.2304 50.0399 63.3429 50.116 63.3642 50.2259C63.3854 50.3359 63.3661 50.4048 63.3245 50.5269C63.2733 50.6835 63.2813 50.8938 63.4301 51.6635ZM68.2793 50.5311L69.3036 49.8443C69.4926 49.7263 69.521 49.7045 69.6299 49.8464C70.8542 51.2068 71.9295 52.8079 72.6795 54.2437C72.76 54.4074 72.7504 54.4419 72.5674 54.5913L71.4858 55.4032C71.2871 55.5557 71.24 55.5648 71.1594 55.4011C70.4075 53.7864 69.3854 52.2077 68.1768 50.8442C68.071 50.718 68.0902 50.6491 68.2793 50.5311ZM61.0899 47.2269L61.5615 46.1254C61.6538 45.9283 61.6822 45.9066 61.8484 45.9233C63.3407 46.1402 64.9448 46.5147 66.516 47.14C66.6913 47.2039 66.6973 47.2353 66.6238 47.4451L66.1825 48.7036C66.0994 48.9478 66.071 48.9696 65.9114 48.9027C64.397 48.2338 62.6682 47.7205 61.1917 47.5006C61.0914 47.4874 61.0569 47.4777 61.0478 47.4306C61.0387 47.3835 61.061 47.3303 61.0899 47.2269ZM59.2469 52.1947L60.4169 52.262C60.649 52.2823 60.6864 52.3077 60.7011 52.4678C60.8225 54.5302 60.6898 56.1203 60.2878 58.0883C60.2523 58.2418 60.2143 58.298 59.9761 58.2463L58.7292 57.9494C58.488 57.882 58.4601 57.8222 58.4987 57.6844C58.9558 55.9175 59.0856 54.3118 58.9854 52.3593C58.9803 52.1648 58.9961 52.1617 59.2469 52.1947Z" fill="white"/>
<circle cx="158" cy="46" r="46" fill="#63A9C6" fill-opacity="0.9"/>
<circle cx="158" cy="46" r="43.75" stroke="white" stroke-width="0.5"/>
<path d="M153.988 42.5089L153.347 43.6595C153.242 43.8753 153.198 43.9001 153.035 43.8175C151.562 43.1081 150.053 42.4706 148.516 41.9365C147.234 43.7325 145.292 45.0691 142.562 46.0365C142.408 46.0826 142.298 46.1039 142.219 46.119C142.062 46.1494 141.978 46.0516 141.792 45.7616C141.515 45.3425 141.169 44.9856 140.885 44.7798C143.589 44.013 145.507 42.8928 146.775 41.3603C145.773 41.0651 144.783 40.8327 143.783 40.6347C143.675 40.9164 143.544 41.2513 143.42 41.5361C143.34 41.7144 143.309 41.7205 143.102 41.6627L141.874 41.3785C141.654 41.3394 141.611 41.2826 141.69 41.1043C141.97 40.5288 142.178 39.9998 142.322 39.5646C142.594 38.6971 142.861 37.7167 143.09 36.7109L141.394 37.0388C139.996 37.3089 139.53 37.4314 139.436 37.4496C139.279 37.4799 139.26 37.4673 139.23 37.3102L138.993 36.0848C138.96 35.912 138.972 35.8933 139.129 35.8629C139.224 35.8447 139.701 35.7851 141.099 35.5149L143.424 35.0657C143.558 34.3229 143.647 33.6049 143.714 32.9401C143.768 32.3756 143.778 31.836 143.747 31.3368C144.372 31.2813 145.005 31.2729 145.501 31.3075C145.714 31.3152 145.795 31.3973 145.82 31.523C145.841 31.6329 145.793 31.7236 145.708 31.8705C145.612 32.0519 145.573 32.2713 145.517 32.6569C145.441 33.3562 145.345 34.0428 145.247 34.7136L150.761 33.6483C152.159 33.3781 152.624 33.2556 152.718 33.2374C152.891 33.204 152.91 33.2167 152.943 33.3895L153.18 34.6149C153.21 34.772 153.198 34.7907 153.025 34.8241C152.93 34.8423 152.453 34.9019 151.055 35.1721L150.458 35.2874C150.404 37.2859 150.064 38.9813 149.386 40.4486C150.864 40.9289 152.382 41.5319 153.946 42.2074C154.106 42.2743 154.096 42.3088 153.988 42.5089ZM148.699 35.6274L144.944 36.3528C144.743 37.3368 144.514 38.261 144.248 39.1598C145.392 39.3462 146.536 39.6141 147.707 39.9418C148.318 38.7157 148.644 37.2838 148.699 35.6274ZM159.721 31.0208L160.294 30.6982C160.455 30.6019 160.505 30.6085 160.595 30.7378C160.93 31.2923 161.315 31.9349 161.581 32.5517C161.747 31.6396 161.841 30.6926 161.828 29.8641C161.82 29.5722 161.794 29.1861 161.719 28.7118C162.256 28.7059 162.968 28.7639 163.303 28.8131C163.522 28.8522 163.597 28.9029 163.613 28.9814C163.634 29.0914 163.609 29.1289 163.561 29.2196C163.491 29.3635 163.461 29.5484 163.466 29.743C163.461 30.1352 163.442 30.5462 163.411 30.9759L164.857 30.6966L164.638 29.5655C164.423 28.4502 164.297 27.9692 164.054 27.2177C164.654 27.1181 165.241 27.0372 165.788 26.9968C165.948 26.9822 166.054 27.0268 166.069 27.1053C166.091 27.2153 166.062 27.3187 166.051 27.4347C166.018 27.6855 166.057 28.0529 166.278 29.1997L166.506 30.3779L167.826 30.1229C169.224 29.8528 169.689 29.7303 169.783 29.7121C169.94 29.6818 169.959 29.6944 169.989 29.8515L170.223 31.0612C170.254 31.2183 170.241 31.237 170.084 31.2674C169.99 31.2856 169.512 31.3452 168.114 31.6153L166.794 31.8703L167.323 34.6038L168.171 34.4399C169.585 34.1667 170.066 34.0412 170.16 34.023C170.317 33.9926 170.336 34.0053 170.366 34.1624L170.603 35.3877C170.633 35.5448 170.621 35.5636 170.463 35.5939C170.369 35.6121 169.876 35.6748 168.462 35.948L167.614 36.1119L168.212 39.2066L169.799 38.9001C171.338 38.6026 171.85 38.471 171.945 38.4528C172.102 38.4225 172.121 38.4351 172.151 38.5922L172.385 39.8019C172.418 39.9747 172.405 39.9934 172.248 40.0238C172.154 40.042 171.629 40.1107 170.09 40.4082L164.874 41.4159C163.335 41.7133 162.807 41.8479 162.728 41.8631C162.571 41.8935 162.552 41.8808 162.519 41.708L162.285 40.4984C162.255 40.3413 162.268 40.3225 162.425 40.2922C162.503 40.277 163.043 40.2052 164.583 39.9078L166.562 39.5253L165.964 36.4306L165.022 36.6127C163.608 36.8859 163.143 37.0083 163.033 37.0296C162.876 37.0599 162.857 37.0473 162.827 36.8902L162.59 35.6648C162.56 35.5077 162.572 35.489 162.729 35.4586C162.839 35.4374 163.317 35.3777 164.731 35.1046L165.673 34.9225L165.145 32.189L163.213 32.5623C163.114 33.2332 162.969 33.9132 162.808 34.5146C162.728 34.7745 162.683 34.8809 162.589 34.8992C162.526 34.9113 162.419 34.8667 162.26 34.7997C161.853 34.6339 161.377 34.5304 161.029 34.4999C161.214 34.0241 161.371 33.4885 161.491 32.9276L160.876 33.2908C160.687 33.4088 160.64 33.4179 160.575 33.2511C160.31 32.5528 159.966 31.8696 159.615 31.3182C159.519 31.1575 159.529 31.1231 159.721 31.0208ZM159.546 39.9847L157.789 30.8889C157.573 29.7735 157.46 29.2739 157.205 28.541C157.805 28.4414 158.345 28.3696 158.875 28.3323C159.036 28.3177 159.145 28.378 159.16 28.4566C159.181 28.5665 159.165 28.6511 159.139 28.7702C159.1 28.9896 159.145 29.3884 159.366 30.5352L161.13 39.6624C161.473 41.4376 161.677 42.3269 161.692 42.4055C161.726 42.5783 161.713 42.597 161.556 42.6274L160.252 42.8793C160.095 42.9097 160.076 42.897 160.043 42.7242C160.028 42.6456 159.886 41.7441 159.546 39.9847ZM156.601 32.0798L157.37 32.0943C157.583 32.1019 157.621 32.1273 157.638 32.3031C157.824 33.6034 157.926 34.8059 157.8 35.8406C157.784 36.0068 157.746 35.9815 157.561 35.952L156.715 35.7896C156.496 35.7505 156.465 35.675 156.481 35.5088C156.585 34.6089 156.548 33.4915 156.368 32.2226C156.338 32.0655 156.372 32.0752 156.601 32.0798ZM125.652 57.9568L126.086 60.2033C128.118 60.4299 129.76 60.7482 131.494 61.3746C131.685 61.4354 131.785 61.5302 131.746 61.7496C131.642 62.3075 131.485 62.843 131.335 63.2468C131.293 63.369 131.242 63.4439 131.164 63.4591C131.117 63.4682 131.051 63.4646 130.976 63.414C129.352 62.7663 127.804 62.3483 126.456 62.2014L127.127 65.6732C127.324 66.6943 127.534 67.6151 127.784 68.7401C127.837 68.9256 127.767 68.9879 127.547 69.0304C127.098 69.1498 126.611 69.2439 126.149 69.3005C125.929 69.343 125.841 69.3111 125.805 69.1226C125.627 67.9509 125.464 67.0211 125.27 66.0156L123.777 58.2866C123.549 57.1084 123.402 56.5991 123.17 55.9919C123.902 55.8995 124.703 55.8262 125.182 55.8639C125.412 55.8685 125.508 55.9476 125.533 56.0733C125.551 56.1675 125.528 56.3023 125.477 56.4589C125.406 56.6844 125.482 57.0771 125.652 57.9568ZM139.115 57.2133L140.185 63.0035C141.304 62.2985 142.376 61.521 143.809 60.2501C145.409 58.8328 146.323 57.7436 147.353 56.241C147.508 56.9606 147.724 57.5708 147.956 58.0147C148.108 58.295 148.091 58.4612 147.92 58.6735C146.842 60.0063 145.705 61.1223 144.515 62.1343C143.458 63.0719 142.351 63.9213 141.043 64.8259C140.683 65.0746 140.431 65.2863 140.26 65.4986C140.181 65.5954 140.096 65.6607 140.001 65.6789C139.907 65.6971 139.82 65.6652 139.71 65.6048C139.291 65.3762 138.91 65.0913 138.545 64.7217C138.467 64.6553 138.421 64.5829 138.403 64.4886C138.387 64.4101 138.401 64.3097 138.43 64.2064C138.462 64.0371 138.404 63.7386 138.319 63.2988L137.21 57.386C136.961 56.0978 136.765 55.3371 136.509 54.6859C137.41 54.6259 138.235 54.5968 138.618 54.6369C138.784 54.6537 138.896 54.7297 138.927 54.8868C138.942 54.9654 138.932 55.0814 138.912 55.2319C138.863 55.5673 138.9 56.0979 139.115 57.2133ZM161.002 56.7978L155.347 57.8905C153.791 58.191 153.231 58.4948 153.074 58.5252C152.885 58.5616 152.741 58.4916 152.649 58.2651C152.5 57.9189 152.263 57.1988 152.046 56.4098C153.097 56.3696 153.889 56.2492 155.475 55.9427L160.534 54.9653C161.728 54.7346 162.931 54.4695 164.138 54.2201C164.371 54.1588 164.427 54.1969 164.463 54.3854C164.586 54.8506 164.689 55.3847 164.749 55.8621C164.785 56.0506 164.734 56.1256 164.511 56.1523C163.33 56.3643 162.165 56.5732 161.002 56.7978ZM175.53 50.1776L177.635 49.7709C178.515 49.6009 179.549 49.3848 180.362 49.2113C180.579 49.1531 180.648 49.1724 180.716 49.4364C180.823 49.8231 180.908 50.2629 180.952 50.6617C181.001 50.9131 180.947 50.9724 180.711 51.0179C180.146 51.1272 178.94 51.295 178.06 51.465L175.829 51.896C176.112 54.2042 176.05 55.1452 175.59 56.3911C175.091 57.7748 174.056 59.1644 172.842 60.1323C172.731 60.2352 172.627 60.2878 172.502 60.3121C172.376 60.3364 172.257 60.3105 172.126 60.2218C171.663 59.9364 171.234 59.7421 170.639 59.6127C172.25 58.4214 173.126 57.3885 173.656 56.0803C174.086 55.0194 174.156 53.9467 173.913 52.2663L170.881 52.8521C170.111 53.0008 169.228 53.2367 168.634 53.3677C168.433 53.4229 168.37 53.3534 168.294 53.1239C168.186 52.8188 168.027 52.165 167.883 51.5899C168.919 51.4711 169.799 51.3012 170.569 51.1524L173.664 50.5545C173.512 49.769 173.348 48.9207 173.199 48.2325C173.086 47.7329 172.982 47.2803 172.704 46.6823C173.495 46.5619 174.308 46.47 174.835 46.4985C175.017 46.5123 175.092 46.563 175.114 46.6729C175.132 46.7672 175.106 46.8863 175.07 47.0398C175.035 47.1933 175.045 47.5825 175.13 48.0223C175.273 48.7607 175.373 49.2791 175.53 50.1776ZM193.678 50.4845L188.022 51.5772C186.467 51.8777 185.907 52.1815 185.749 52.2119C185.561 52.2483 185.417 52.1783 185.324 51.9518C185.176 51.6056 184.939 50.8855 184.722 50.0965C185.773 50.0563 186.565 49.9359 188.151 49.6294L193.21 48.652C194.404 48.4213 195.607 48.1562 196.814 47.9068C197.046 47.8455 197.103 47.8836 197.139 48.0721C197.261 48.5373 197.365 49.0714 197.424 49.5488C197.461 49.7373 197.41 49.8123 197.187 49.839C196.006 50.051 194.84 50.2599 193.678 50.4845Z" fill="white"/>
<circle cx="270" cy="46" r="46" fill="#63A9C6" fill-opacity="0.9"/>
<circle cx="270" cy="46" r="43.75" stroke="white" stroke-width="0.5"/>
<path d="M239.225 39.1733C240.155 38.5863 241.059 38.0368 241.887 37.5998C242.86 37.0695 243.64 36.8048 244.567 36.6257C246.594 36.2341 248.109 37.1635 248.443 38.8915C248.835 40.918 247.582 42.4474 245.022 42.9422C244.707 43.0029 244.535 43.0363 244.327 43.06C244.041 43.0989 243.948 43.0356 243.848 42.8592C243.548 42.3144 243.29 41.9079 242.787 41.4998C243.5 41.4762 243.964 41.4353 244.561 41.32C246.007 41.0407 246.793 40.2206 246.581 39.121C246.42 38.2884 245.704 37.9542 244.698 38.1484C243.866 38.3093 243.239 38.6096 242.458 39.0375C241.608 39.5278 240.94 39.9501 240.067 40.5752C241.354 42.7707 242.565 44.8183 243.852 47.0954C243.954 47.2875 243.982 47.3473 243.784 47.4998C243.43 47.7799 243.005 48.025 242.53 48.2635C242.423 48.3004 242.37 48.2781 242.292 48.1301C241.071 45.775 239.986 43.7847 238.682 41.5922C238.14 41.9903 237.683 42.3231 237.327 42.5875C236.97 42.8519 236.819 42.9952 236.604 43.2323C236.512 43.3478 236.414 43.4319 236.336 43.4471C236.241 43.4653 236.069 43.4171 235.913 43.2843C235.429 42.8889 235.056 42.3907 234.657 41.9299C235.34 41.6676 235.592 41.5375 236.118 41.224C236.439 41.0316 236.937 40.7398 237.801 40.1493C237.503 39.6202 237.161 39.0343 236.686 38.2624C236.522 38.0009 236.227 37.569 235.712 37.0981C236.36 36.8262 237.159 36.5741 237.771 36.4558C237.913 36.4284 238.028 36.5202 238.071 36.7401C238.11 36.9443 238.163 37.0482 238.234 37.2464C238.395 37.5738 238.487 37.8003 238.782 38.3953C238.968 38.7668 239.107 38.9842 239.225 39.1733ZM239.842 35.6158C240.215 35.1852 240.588 34.7546 240.878 34.4866C240.948 34.4243 240.992 34.3995 241.039 34.3904C241.086 34.3813 241.136 34.3879 241.224 34.4198C241.79 34.6526 242.616 35.0471 243.197 35.5216C243.256 35.5753 243.296 35.6164 243.309 35.6792C243.321 35.7421 243.298 35.7953 243.263 35.8672C243.041 36.236 242.738 36.6043 242.394 36.9316C242.353 36.9721 242.311 37.0126 242.264 37.0217C242.233 37.0278 242.18 37.0055 242.123 36.9674C241.452 36.4453 240.756 35.9606 239.842 35.6158ZM257.713 34.4931C257.337 33.9792 257.029 33.5661 256.662 33.0177C256.354 32.6046 256.133 32.3051 255.631 31.897C256.373 31.6069 257.028 31.3664 257.452 31.2844C257.86 31.2055 258.007 31.2912 258.05 31.5111C258.077 31.6525 258.092 31.8127 258.15 31.948C258.234 32.1274 258.339 32.3352 258.553 32.6849C258.833 33.1197 259.047 33.4695 259.333 33.8541C260.699 33.248 261.672 32.7178 262.428 32.2458C262.57 32.1369 262.621 32.1435 262.748 32.2981C262.963 32.5662 263.211 33.0887 263.375 33.4318C263.452 33.5798 263.404 33.6705 263.301 33.7232C262.601 34.1516 261.745 34.6105 260.35 35.2383C261.219 36.2764 262.211 37.1929 263.394 38.0887C263.544 38.19 263.707 38.2727 263.87 38.3553C263.979 38.4157 264.051 38.4507 264.066 38.5292C264.087 38.6392 264.055 38.7268 264.024 38.8145C263.965 39.1028 263.748 39.6662 263.608 39.954C263.516 40.1511 263.449 40.2291 263.34 40.2503C263.261 40.2655 263.208 40.2432 263.064 40.1732C262.832 40.0713 262.67 39.9886 262.341 39.8892C261.217 39.5524 260.018 39.5069 258.856 39.7315C257.222 40.0472 256.326 40.7254 256.517 41.7151C256.745 42.8933 258.269 43.1041 260.735 42.6275C261.505 42.4788 262.417 42.2212 263.206 41.922C263.265 42.5625 263.244 43.2998 263.201 43.6666C263.184 43.8328 263.128 43.8764 262.945 43.9442C262.671 44.046 261.882 44.2636 261.223 44.3911C257.515 45.1074 255.292 44.3147 254.892 42.241C254.546 40.4502 255.842 38.8959 258.435 38.3951C259.707 38.1493 260.623 38.1678 261.313 38.279C260.403 37.7051 259.608 36.9625 258.749 35.89C257.793 36.254 256.906 36.5557 255.793 36.8685C255.375 36.9819 254.661 37.1686 254.269 37.2445C254.127 37.2718 254.046 37.1897 253.963 37.0103C253.711 36.5537 253.569 36.2389 253.328 35.6663C254.135 35.5429 254.776 35.4027 255.289 35.2712C255.942 35.1123 256.71 34.8662 257.713 34.4931ZM271.494 28.8973C272.232 28.8362 273.001 28.769 273.512 28.8006C273.791 28.8119 273.917 28.8692 273.947 29.0263C273.98 29.1991 273.922 29.4058 273.89 29.575C273.854 29.8101 273.885 30.3093 274.04 31.5341C274.351 33.9837 274.582 35.6012 274.979 37.6592C275.286 39.2458 275.544 39.5707 276.801 39.3279C278.199 39.0578 280.219 37.7876 281.741 35.375C281.919 35.9598 282.161 36.4509 282.39 36.7976C282.502 36.9552 282.571 37.0561 282.589 37.1504C282.616 37.2917 282.578 37.4296 282.369 37.6981C280.973 39.5811 278.913 40.8103 276.87 41.2048C274.859 41.5933 273.762 40.9743 273.298 38.5707C272.788 35.9315 272.492 33.6421 272.206 31.7417C272.059 30.8088 271.912 29.7943 271.494 28.8973ZM286.703 27.4905C287.475 27.439 288.282 27.4788 288.798 27.6234C288.952 27.6589 289.083 27.7477 289.104 27.8576C289.123 27.9519 289.106 28.1181 289.064 28.3218C289.037 28.5224 289.089 29.2131 289.22 29.8886C289.414 30.894 289.664 32.019 290.195 33.4157C290.654 34.6143 291.269 35.6036 291.929 35.4761C292.432 35.379 292.718 34.7533 293.015 33.0011C293.467 33.4842 293.882 33.7787 294.254 34.0165C294.476 34.1529 294.513 34.3414 294.477 34.5765C294.189 36.2942 293.379 37.3307 292.279 37.5432C291.054 37.7799 289.487 36.5836 288.55 34.0106C288.01 32.5668 287.569 30.9573 287.289 29.512C287.122 28.648 287 28.1828 286.703 27.4905ZM295.177 28.1672C295.702 27.6748 296.052 27.379 296.279 27.2048C296.336 27.1612 296.392 27.1176 296.44 27.1085C296.502 27.0964 296.556 27.1187 296.631 27.1694C298.3 28.1342 299.975 30.0593 300.748 31.9471C300.834 32.1422 300.752 32.2233 300.642 32.3261C300.285 32.6721 299.935 32.9679 299.538 33.1913C299.361 33.2905 299.242 33.2646 299.174 33.0822C298.206 30.9389 297.089 29.4599 295.177 28.1672ZM248.618 57.3374L249.167 57.2311C249.937 57.0824 250.814 56.8967 251.53 56.7257C251.716 56.6736 251.75 56.7648 251.799 56.9345C251.906 57.3212 251.994 57.7768 252.039 58.1756C252.063 58.3829 252.043 58.4518 251.82 58.4785C251.286 58.5817 250.325 58.7512 249.555 58.8999L248.911 59.0244C249.251 61.289 249.16 62.6754 248.636 64.0966C248.103 65.5522 247.012 66.7407 245.493 67.7349C245.292 67.8716 245.175 67.943 245.081 67.9612C244.987 67.9794 244.899 67.9475 244.749 67.8461C244.184 67.4502 243.843 67.2879 243.263 67.1555C245.36 66.0332 246.415 64.9983 246.967 63.5554C247.386 62.4316 247.428 61.2991 247.12 59.3704L243.774 60.0169L243.883 60.5824C244.062 61.5093 244.226 62.3576 244.434 63.1811C244.483 63.3509 244.379 63.4035 244.21 63.4526C243.807 63.563 243.289 63.6631 242.859 63.7136C242.651 63.7374 242.551 63.7242 242.533 63.5484C242.423 62.7224 242.305 61.9465 242.114 60.9568L241.999 60.3599L241.528 60.4509C240.679 60.6148 239.432 60.9048 238.951 61.0303C238.825 61.0546 238.76 60.9694 238.704 60.7682C238.578 60.4505 238.456 59.9037 238.3 59.2657C238.969 59.1853 239.996 59.0194 241.206 58.7857L241.677 58.6947L241.456 57.5479C241.261 56.5425 241.154 56.1558 240.821 55.275C241.653 55.1957 242.438 55.1255 242.786 55.1561C242.965 55.1541 243.043 55.2205 243.064 55.3305C243.082 55.4247 243.056 55.5438 243.034 55.6786C242.978 55.9826 243.009 56.1397 243.215 57.2079L243.437 58.3547L246.814 57.7021L246.532 56.1596C246.378 55.2768 246.191 54.5633 245.975 54.0347C246.584 53.9822 247.466 53.9095 247.865 53.9466C248.094 53.9513 248.172 54.0177 248.196 54.1433C248.208 54.2062 248.211 54.3035 248.188 54.4383C248.136 54.758 248.199 55.1695 248.329 55.845L248.618 57.3374ZM261.425 54.6346L261.283 53.8963C261.092 52.9066 260.921 52.19 260.643 51.5104C261.393 51.4306 262.228 51.367 262.636 51.3697C262.962 51.3718 263.024 51.5228 262.925 51.8517C262.835 52.146 262.889 52.5104 263.071 53.453L263.232 54.2856L265.164 53.9122C266.531 53.6482 267.587 53.3789 268.351 53.1988C268.489 53.1558 268.57 53.2379 268.604 53.4107C268.698 53.8161 268.777 54.2245 268.825 54.639C268.848 54.8463 268.823 54.9654 268.662 54.98C267.682 55.1368 266.479 55.3203 265.411 55.5267L263.557 55.8849L264.186 59.0552C264.347 59.8878 264.509 60.5572 264.746 61.7825C264.894 62.5523 264.712 63.1254 264.132 63.5797C263.683 63.9596 262.878 64.3434 262.221 64.4866C262.032 64.523 261.92 64.447 261.78 64.2296C261.438 63.7253 261.02 63.3334 260.454 63.0191C261.523 62.8127 262.202 62.6163 262.554 62.4178C262.785 62.2592 262.861 62.0652 262.782 61.6567L261.735 56.237L259.269 56.7135C258.373 56.8865 257.298 57.1431 256.572 57.3486C256.431 57.3759 256.344 57.2624 256.307 57.0738C256.237 56.7941 256.053 56.0963 255.953 55.5779C257.165 55.4415 258.126 55.272 258.928 55.1172L261.425 54.6346ZM258.255 58.2131C258.938 58.2929 259.587 58.4446 260.028 58.6201C260.313 58.7443 260.438 58.8832 260.197 59.1577C260.064 59.3138 259.985 59.4921 259.908 59.7678C259.66 60.6793 259.181 61.9125 258.671 62.7281C258.522 62.9688 258.405 63.0402 258.139 62.9286C257.626 62.7182 257.138 62.5518 256.676 62.5268C257.405 61.4082 257.813 60.4821 258.076 59.5675C258.23 59.0978 258.273 58.731 258.255 58.2131ZM265.597 57.8375C265.96 57.4413 266.317 57.0953 266.627 56.7585C266.788 56.5807 266.923 56.6035 267.079 56.7363C267.976 57.2474 268.927 58.1228 269.881 59.1771C270.068 59.3854 270.042 59.5045 269.896 59.6793C269.69 59.9635 269.311 60.3627 268.996 60.6681C268.844 60.8115 268.771 60.8581 268.622 60.6751C267.853 59.7318 266.743 58.6263 265.597 57.8375ZM266.638 49.2275C267.581 49.0454 268.478 49.6381 268.66 50.5806C268.842 51.5232 268.231 52.4072 267.288 52.5893C266.345 52.7715 265.449 52.1788 265.267 51.2362C265.078 50.2623 265.696 49.4096 266.638 49.2275ZM266.784 49.9816C266.25 50.0848 265.933 50.5534 266.036 51.0875C266.14 51.6216 266.608 51.9385 267.142 51.8353C267.676 51.7321 267.993 51.2635 267.89 50.7294C267.787 50.1952 267.318 49.8784 266.784 49.9816ZM282.762 54.9121L277.106 56.0048C275.551 56.3053 274.99 56.6092 274.833 56.6395C274.645 56.6759 274.501 56.606 274.408 56.3794C274.26 56.0333 274.023 55.3132 273.805 54.5241C274.857 54.4839 275.648 54.3636 277.235 54.057L282.293 53.0797C283.487 52.849 284.691 52.5839 285.898 52.3344C286.13 52.2732 286.186 52.3112 286.223 52.4997C286.345 52.965 286.448 53.4991 286.508 53.9764C286.545 54.1649 286.494 54.2399 286.271 54.2667C285.09 54.4786 283.924 54.6875 282.762 54.9121ZM296.111 46.6619L296.545 48.9084C298.577 49.135 300.219 49.4533 301.953 50.0797C302.144 50.1405 302.244 50.2353 302.205 50.4547C302.101 51.0126 301.944 51.5482 301.794 51.952C301.752 52.0741 301.701 52.1491 301.623 52.1642C301.576 52.1733 301.51 52.1698 301.435 52.1191C299.81 51.4715 298.263 51.0534 296.915 50.9065L297.585 54.3783C297.783 55.3994 297.993 56.3202 298.243 57.4452C298.295 57.6307 298.226 57.693 298.006 57.7355C297.556 57.8549 297.069 57.949 296.608 58.0056C296.388 58.0481 296.3 58.0162 296.264 57.8277C296.086 56.6561 295.923 55.7262 295.729 54.7208L294.235 46.9917C294.008 45.8135 293.86 45.3042 293.629 44.6971C294.361 44.6046 295.161 44.5314 295.641 44.569C295.87 44.5736 295.967 44.6527 295.991 44.7784C296.01 44.8727 295.987 45.0074 295.936 45.164C295.865 45.3895 295.941 45.7822 296.111 46.6619Z" fill="white"/>
</svg>
