<svg width="92" height="92" viewBox="0 0 92 92" fill="none" xmlns="http://www.w3.org/2000/svg">
<circle cx="46" cy="46" r="46" fill="#63A9C6" fill-opacity="0.9"/>
<circle cx="46" cy="46" r="43.75" stroke="white" stroke-width="0.5"/>
<path d="M41.9881 42.5089L41.3467 43.6595C41.2417 43.8753 41.1976 43.9001 41.035 43.8175C39.5617 43.1081 38.0533 42.4706 36.5161 41.9365C35.2335 43.7325 33.2918 45.0691 30.5618 46.0365C30.4077 46.0826 30.2978 46.1039 30.2192 46.119C30.0621 46.1494 29.978 46.0516 29.7916 45.7616C29.5151 45.3425 29.1691 44.9856 28.8849 44.7798C31.5886 44.013 33.5069 42.8928 34.7752 41.3603C33.773 41.0651 32.7829 40.8327 31.7832 40.6347C31.6747 40.9164 31.5438 41.2513 31.4196 41.5361C31.34 41.7144 31.3086 41.7205 31.1018 41.6627L29.8736 41.3785C29.6542 41.3394 29.6107 41.2826 29.6903 41.1043C29.9702 40.5288 30.1776 39.9998 30.3217 39.5646C30.5941 38.6971 30.8609 37.7167 31.0903 36.7109L29.3937 37.0388C27.9955 37.3089 27.5303 37.4314 27.436 37.4496C27.279 37.4799 27.2602 37.4673 27.2299 37.3102L26.9931 36.0848C26.9597 35.912 26.9724 35.8933 27.1295 35.8629C27.2237 35.8447 27.7011 35.7851 29.0992 35.5149L31.4242 35.0657C31.5578 34.3229 31.6472 33.6049 31.7143 32.9401C31.7682 32.3756 31.778 31.836 31.7467 31.3368C32.3715 31.2813 33.0054 31.2729 33.501 31.3075C33.7143 31.3152 33.7954 31.3973 33.8197 31.523C33.8409 31.6329 33.7933 31.7236 33.7076 31.8705C33.6122 32.0519 33.5732 32.2713 33.5173 32.6569C33.4406 33.3562 33.3451 34.0428 33.2465 34.7136L38.7606 33.6483C40.1587 33.3781 40.6239 33.2556 40.7182 33.2374C40.891 33.204 40.9097 33.2167 40.9431 33.3895L41.1799 34.6149C41.2102 34.772 41.1975 34.7907 41.0247 34.8241C40.9305 34.8423 40.4531 34.9019 39.055 35.1721L38.458 35.2874C38.4042 37.2859 38.0636 38.9813 37.3856 40.4486C38.8636 40.9289 40.3815 41.5319 41.9461 42.2074C42.1057 42.2743 42.0961 42.3088 41.9881 42.5089ZM36.6986 35.6274L32.944 36.3528C32.743 37.3368 32.5142 38.261 32.2479 39.1598C33.392 39.3462 34.5356 39.6141 35.707 39.9418C36.3175 38.7157 36.6438 37.2838 36.6986 35.6274ZM47.7208 31.0208L48.294 30.6982C48.4547 30.6019 48.5049 30.6085 48.595 30.7378C48.9303 31.2923 49.3152 31.9349 49.581 32.5517C49.747 31.6396 49.8411 30.6926 49.8277 29.8641C49.8202 29.5722 49.7944 29.1861 49.7191 28.7118C50.2557 28.7059 50.9676 28.7639 51.3031 28.8131C51.5225 28.8522 51.5975 28.9029 51.6126 28.9814C51.6339 29.0914 51.6085 29.1289 51.5609 29.2196C51.4909 29.3635 51.4614 29.5484 51.4664 29.743C51.4607 30.1352 51.4424 30.5462 51.4113 30.9759L52.8566 30.6966L52.6381 29.5655C52.4226 28.4502 52.297 27.9692 52.0541 27.2177C52.6541 27.1181 53.2414 27.0372 53.7876 26.9968C53.9478 26.9822 54.0542 27.0268 54.0693 27.1053C54.0906 27.2153 54.0617 27.3187 54.0515 27.4347C54.0185 27.6855 54.0569 28.0529 54.2784 29.1997L54.5061 30.3779L55.8257 30.1229C57.2238 29.8528 57.689 29.7303 57.7833 29.7121C57.9404 29.6818 57.9591 29.6944 57.9895 29.8515L58.2232 31.0612C58.2536 31.2183 58.2409 31.237 58.0838 31.2674C57.9895 31.2856 57.5122 31.3452 56.114 31.6153L54.7944 31.8703L55.3226 34.6038L56.1709 34.4399C57.5847 34.1667 58.0657 34.0412 58.1599 34.023C58.317 33.9926 58.3357 34.0053 58.3661 34.1624L58.6029 35.3877C58.6332 35.5448 58.6205 35.5636 58.4634 35.5939C58.3692 35.6121 57.8761 35.6748 56.4623 35.948L55.614 36.1119L56.2119 39.2066L57.7985 38.9001C59.3381 38.6026 59.8504 38.471 59.9447 38.4528C60.1018 38.4225 60.1205 38.4351 60.1509 38.5922L60.3846 39.8019C60.418 39.9747 60.4053 39.9934 60.2482 40.0238C60.1539 40.042 59.6295 40.1107 58.0899 40.4082L52.8744 41.4159C51.3349 41.7133 50.8068 41.8479 50.7283 41.8631C50.5712 41.8935 50.5524 41.8808 50.519 41.708L50.2853 40.4984C50.255 40.3413 50.2676 40.3225 50.4247 40.2922C50.5033 40.277 51.0435 40.2052 52.583 39.9078L54.5624 39.5253L53.9645 36.4306L53.0219 36.6127C51.608 36.8859 51.1428 37.0083 51.0329 37.0296C50.8758 37.0599 50.857 37.0473 50.8267 36.8902L50.5899 35.6648C50.5596 35.5077 50.5722 35.489 50.7293 35.4586C50.8393 35.4374 51.3167 35.3777 52.7305 35.1046L53.6731 34.9225L53.1449 32.189L51.2127 32.5623C51.1142 33.2332 50.9685 33.9132 50.8077 34.5146C50.7275 34.7745 50.6829 34.8809 50.5886 34.8992C50.5258 34.9113 50.4194 34.8667 50.2598 34.7997C49.853 34.6339 49.3767 34.5304 49.0286 34.4999C49.2137 34.0241 49.3709 33.4885 49.4907 32.9276L48.8764 33.2908C48.6874 33.4088 48.6403 33.4179 48.5755 33.2511C48.3102 32.5528 47.9663 31.8696 47.6153 31.3182C47.5191 31.1575 47.5287 31.1231 47.7208 31.0208ZM47.5461 39.9847L45.7887 30.8889C45.5732 29.7735 45.4604 29.2739 45.2047 28.541C45.8047 28.4414 46.3449 28.3696 46.8755 28.3323C47.0356 28.3177 47.145 28.378 47.1602 28.4566C47.1815 28.5665 47.1652 28.6511 47.1393 28.7702C47.1002 28.9896 47.1447 29.3884 47.3663 30.5352L49.1298 39.6624C49.4727 41.4376 49.6772 42.3269 49.6923 42.4055C49.7257 42.5783 49.7131 42.597 49.556 42.6274L48.2521 42.8793C48.095 42.9097 48.0762 42.897 48.0428 42.7242C48.0277 42.6456 47.8861 41.7441 47.5461 39.9847ZM44.6011 32.0798L45.3698 32.0943C45.5831 32.1019 45.6206 32.1273 45.6383 32.3031C45.8243 33.6034 45.9263 34.8059 45.8003 35.8406C45.7835 36.0068 45.746 35.9815 45.5611 35.952L44.7149 35.7896C44.4955 35.7505 44.4646 35.675 44.4814 35.5088C44.5846 34.6089 44.5479 33.4915 44.3679 32.2226C44.3376 32.0655 44.372 32.0752 44.6011 32.0798ZM13.652 57.9568L14.0861 60.2033C16.118 60.4299 17.7602 60.7482 19.4945 61.3746C19.6855 61.4354 19.7853 61.5302 19.7462 61.7496C19.6421 62.3075 19.4849 62.843 19.3348 63.2468C19.2932 63.369 19.2425 63.4439 19.1639 63.4591C19.1168 63.4682 19.0509 63.4646 18.9759 63.414C17.3516 62.7663 15.8042 62.3483 14.4558 62.2014L15.1266 65.6732C15.3239 66.6943 15.5344 67.6151 15.7844 68.7401C15.8365 68.9256 15.7671 68.9879 15.5471 69.0304C15.0976 69.1498 14.6106 69.2439 14.149 69.3005C13.9291 69.343 13.8414 69.3111 13.805 69.1226C13.6275 67.9509 13.4641 67.0211 13.2699 66.0156L11.7765 58.2866C11.5489 57.1084 11.4016 56.5991 11.1702 55.9919C11.902 55.8995 12.7026 55.8262 13.1825 55.8639C13.4115 55.8685 13.5083 55.9476 13.5325 56.0733C13.5508 56.1675 13.5279 56.3023 13.4767 56.4589C13.4062 56.6844 13.4821 57.0771 13.652 57.9568ZM27.1155 57.2133L28.1853 63.0035C29.3039 62.2985 30.3758 61.521 31.8088 60.2501C33.409 58.8328 34.3229 57.7436 35.3526 56.241C35.5079 56.9606 35.7236 57.5708 35.956 58.0147C36.1079 58.295 36.0912 58.4612 35.9203 58.6735C34.8416 60.0063 33.7046 61.1223 32.515 62.1343C31.4577 63.0719 30.3507 63.9213 29.0426 64.8259C28.6832 65.0746 28.4308 65.2863 28.26 65.4986C28.1809 65.5954 28.0957 65.6607 28.0015 65.6789C27.9072 65.6971 27.8196 65.6652 27.7101 65.6048C27.2912 65.3762 26.9102 65.0913 26.5455 64.7217C26.4675 64.6553 26.4209 64.5829 26.4027 64.4886C26.3875 64.4101 26.4007 64.3097 26.4296 64.2064C26.4621 64.0371 26.4044 63.7386 26.3194 63.2988L25.2096 57.386C24.9607 56.0978 24.7649 55.3371 24.5087 54.6859C25.4096 54.6259 26.2351 54.5968 26.6177 54.6369C26.7839 54.6537 26.8963 54.7297 26.9267 54.8868C26.9419 54.9654 26.9317 55.0814 26.9119 55.2319C26.8626 55.5673 26.8999 56.0979 27.1155 57.2133ZM49.0021 56.7978L43.3466 57.8905C41.7914 58.191 41.2309 58.4948 41.0738 58.5252C40.8853 58.5616 40.7414 58.4916 40.6487 58.2651C40.5004 57.9189 40.2635 57.1988 40.0458 56.4098C41.0973 56.3696 41.8888 56.2492 43.4755 55.9427L48.5339 54.9653C49.7279 54.7346 50.9314 54.4695 52.138 54.2201C52.3706 54.1588 52.4268 54.1969 52.4633 54.3854C52.5857 54.8506 52.6889 55.3847 52.7486 55.8621C52.785 56.0506 52.7343 56.1256 52.5113 56.1523C51.3301 56.3643 50.1646 56.5732 49.0021 56.7978ZM63.53 50.1776L65.6351 49.7709C66.5148 49.6009 67.5486 49.3848 68.3624 49.2113C68.5793 49.1531 68.6482 49.1724 68.7156 49.4364C68.8229 49.8231 68.9078 50.2629 68.9523 50.6617C69.0009 50.9131 68.9471 50.9724 68.7115 51.0179C68.146 51.1272 66.9399 51.295 66.0602 51.465L63.8294 51.896C64.1124 54.2042 64.0498 55.1452 63.5898 56.3911C63.0912 57.7748 62.056 59.1644 60.8416 60.1323C60.7311 60.2352 60.6272 60.2878 60.5015 60.3121C60.3759 60.3364 60.2568 60.3105 60.1256 60.2218C59.663 59.9364 59.2344 59.7421 58.6391 59.6127C60.2503 58.4214 61.1263 57.3885 61.6557 56.0803C62.0863 55.0194 62.156 53.9467 61.9129 52.2663L58.8809 52.8521C58.1112 53.0008 57.2279 53.2367 56.6339 53.3677C56.4328 53.4229 56.3705 53.3534 56.2935 53.1239C56.1857 52.8188 56.0268 52.165 55.8831 51.5899C56.9193 51.4711 57.7991 51.3012 58.5688 51.1524L61.6636 50.5545C61.5118 49.769 61.3479 48.9207 61.1987 48.2325C61.0858 47.7329 60.9821 47.2803 60.7036 46.6823C61.4951 46.5619 62.3085 46.47 62.8355 46.4985C63.0174 46.5123 63.0923 46.563 63.1136 46.6729C63.1318 46.7672 63.1059 46.8863 63.0704 47.0398C63.0349 47.1933 63.0449 47.5825 63.1299 48.0223C63.2725 48.7607 63.3727 49.2791 63.53 50.1776ZM81.6777 50.4845L76.0223 51.5772C74.4671 51.8777 73.9066 52.1815 73.7495 52.2119C73.561 52.2483 73.4171 52.1783 73.3244 51.9518C73.1761 51.6056 72.9391 50.8855 72.7215 50.0965C73.773 50.0563 74.5645 49.9359 76.1512 49.6294L81.2096 48.652C82.4035 48.4213 83.6071 48.1562 84.8137 47.9068C85.0463 47.8455 85.1025 47.8836 85.139 48.0721C85.2614 48.5373 85.3646 49.0714 85.4243 49.5488C85.4607 49.7373 85.41 49.8123 85.187 49.839C84.0058 50.051 82.8402 50.2599 81.6777 50.4845Z" fill="white"/>
</svg>
