<svg width="92" height="92" viewBox="0 0 92 92" fill="none" xmlns="http://www.w3.org/2000/svg">
<circle cx="46" cy="46" r="46" fill="#63A9C6" fill-opacity="0.9"/>
<circle cx="46" cy="46" r="43.75" stroke="white" stroke-width="0.5"/>
<path d="M15.262 43.1587L13.5968 43.4804C12.1515 43.7597 11.6706 43.8852 11.5764 43.9034C11.4036 43.9368 11.3848 43.9241 11.3514 43.7513L11.1299 42.6045C11.0995 42.4474 11.1122 42.4287 11.285 42.3953C11.3792 42.3771 11.8723 42.3144 13.3176 42.0352L22.3505 40.2899C23.7801 40.0137 24.2767 39.8851 24.371 39.8669C24.5281 39.8366 24.5468 39.8493 24.5772 40.0063L24.7987 41.1531C24.8321 41.3259 24.8194 41.3447 24.6624 41.375C24.5681 41.3933 24.0593 41.459 22.6298 41.7352L20.3833 42.1692L20.9934 45.3268C21.0693 45.7195 21.1184 45.8893 21.2557 46.0095C21.4244 46.1235 21.8733 46.0857 22.7373 45.9187C23.4443 45.7821 23.8406 45.6404 24.0114 45.4281C24.2329 45.1409 24.2295 44.7015 24.0515 43.6115C24.3707 43.7454 24.7938 43.8266 25.2235 43.8577C25.6471 43.8573 25.6471 43.8573 25.7103 44.2688C25.8539 45.3492 25.762 45.9699 25.433 46.3757C24.9899 46.9501 24.3605 47.2347 22.7267 47.5504C21.0929 47.866 20.4843 47.837 20.1094 47.5835C19.7877 47.3523 19.5989 46.9651 19.438 46.1325L18.7338 42.4879L16.9272 42.837C17.1709 44.4358 17.0251 45.6209 16.5926 46.503C16.0698 47.761 14.9846 48.6388 13.5579 49.436C13.3972 49.5322 13.2933 49.5848 13.2148 49.6C13.0734 49.6273 12.9923 49.5452 12.7963 49.2898C12.5319 48.9335 12.2386 48.6805 11.8232 48.386C13.3999 47.6902 14.4054 46.9908 14.8977 46.0809C15.3394 45.2459 15.4516 44.3931 15.262 43.1587ZM17.4703 35.6107L21.0363 34.9217C22.4973 34.6395 23.0253 34.5048 23.1196 34.4866C23.2767 34.4563 23.2954 34.4689 23.3258 34.626C23.344 34.7203 23.3672 35.0091 23.4583 35.4804L23.5918 36.1716C23.868 37.6012 23.948 37.8465 23.9662 37.9407C23.9966 38.0978 23.9839 38.1166 23.8268 38.1469L22.5229 38.3989C22.3658 38.4292 22.3471 38.4165 22.3167 38.2594L21.9312 36.2643L12.16 38.1523L12.5454 40.1474C12.5788 40.3202 12.5661 40.3389 12.4091 40.3693L11.1052 40.6212C10.9481 40.6515 10.9293 40.6389 10.8959 40.4661C10.8777 40.3718 10.8636 40.1301 10.5844 38.6848L10.4751 38.1193C10.3598 37.5223 10.2737 37.2456 10.2555 37.1514C10.2252 36.9943 10.2378 36.9755 10.3949 36.9452C10.4892 36.927 11.0294 36.8552 12.4904 36.5729L15.8208 35.9294L15.7904 35.7723C15.6599 35.0968 15.5622 34.6757 15.3921 34.3012C15.9764 34.2046 16.548 34.1267 17.0912 34.0707C17.2356 34.0591 17.342 34.1037 17.3542 34.1665C17.3754 34.2765 17.3465 34.3799 17.3206 34.4989C17.2978 34.6337 17.3215 34.841 17.4399 35.4536L17.4703 35.6107ZM19.2987 39.5922L15.8584 40.2569C14.4445 40.53 13.9793 40.6525 13.885 40.6707C13.728 40.7011 13.7092 40.6884 13.6789 40.5313L13.4512 39.3531C13.4178 39.1803 13.4305 39.1616 13.5876 39.1312C13.6818 39.113 14.1592 39.0534 15.5731 38.7802L19.0134 38.1155C20.4116 37.8453 20.8925 37.7198 20.9868 37.7016C21.1438 37.6713 21.1469 37.687 21.1803 37.8598L21.4079 39.038C21.4383 39.1951 21.4413 39.2108 21.2842 39.2411C21.1899 39.2593 20.6969 39.322 19.2987 39.5922ZM34.8331 31.1805L34.7003 31.3365C36.9779 33.3409 39.3881 34.2603 42.3284 34.7189C42.0998 35.1379 41.9588 35.5888 41.8836 36.0433C41.8283 36.3473 41.8054 36.4821 41.6798 36.5064C41.6012 36.5216 41.4791 36.48 41.2754 36.4378C40.4576 36.2536 39.6621 36.0162 38.9077 35.7383L39.1293 36.8851C39.1596 37.0422 39.147 37.0609 39.0056 37.0882C38.9113 37.1065 38.4026 37.1722 36.9573 37.4514L35.8419 37.6669L36.1819 39.4264L37.9727 39.0804C39.4966 38.7859 40.0089 38.6544 40.1032 38.6361C40.276 38.6028 40.2947 38.6154 40.3251 38.7725L40.5557 39.9664C40.5861 40.1235 40.5734 40.1423 40.4006 40.1757C40.3064 40.1939 39.7819 40.2626 38.2581 40.557L36.4672 40.9031L36.8375 42.8196L40.5763 42.0972C42.0059 41.821 42.5025 41.6925 42.5968 41.6743C42.7539 41.6439 42.7726 41.6566 42.803 41.8137L43.0397 43.039C43.0701 43.1961 43.0574 43.2149 42.9003 43.2452C42.806 43.2634 42.2973 43.3291 40.8677 43.6053L31.8976 45.3385C30.4523 45.6177 29.9557 45.7463 29.8614 45.7645C29.7044 45.7948 29.6856 45.7821 29.6553 45.625L29.4185 44.3997C29.3882 44.2426 29.4008 44.2239 29.5579 44.1935C29.6522 44.1753 30.161 44.1096 31.6062 43.8304L35.1566 43.1444L34.7863 41.2278L33.1996 41.5344C31.6758 41.8288 31.1634 41.9604 31.0692 41.9786C30.9121 42.009 30.8933 41.9963 30.863 41.8392L30.6323 40.6453C30.602 40.4882 30.6146 40.4694 30.7717 40.4391C30.866 40.4209 31.3905 40.3521 32.9143 40.0577L34.5009 39.7511L34.161 37.9917L33.1556 38.1859C31.7103 38.4652 31.2294 38.5907 31.1351 38.6089C30.9781 38.6393 30.9593 38.6266 30.929 38.4695L30.7317 37.4484C30.1949 37.9595 29.6363 38.4422 29.0245 38.9026C28.8512 39.0176 28.7534 39.1017 28.6591 39.1199C28.5492 39.1411 28.4651 39.0433 28.2848 38.7848C28.0143 38.3971 27.6774 38.0874 27.3618 37.8876C30.0415 35.9847 31.5688 34.1904 32.5247 31.9687C32.7159 31.5244 32.8473 31.1079 32.9031 30.7223C33.5153 30.6855 34.1178 30.6832 34.6164 30.7335C34.8297 30.7412 34.9234 30.8045 34.9447 30.9145C34.9629 31.0088 34.9279 31.0807 34.8331 31.1805ZM32.8703 36.7093L36.672 35.9747C37.7559 35.7653 38.287 35.6464 38.5384 35.5978C36.8578 34.9122 35.345 33.9986 34.0852 32.7916C33.3499 34.384 32.3649 35.7803 31.1549 37.0244C31.4407 36.9855 31.9591 36.8853 32.8703 36.7093ZM54.9253 32.6109L54.6268 32.6686L54.897 34.0667L54.9284 34.0607C55.8552 33.8816 56.1319 33.7955 56.2419 33.7743C56.399 33.7439 56.4177 33.7566 56.4481 33.9137C56.4693 34.0237 56.4986 34.3439 56.6504 35.1294L56.9175 36.5118C57.0693 37.2973 57.1644 37.6211 57.1826 37.7154C57.2099 37.8568 57.1973 37.8755 57.0402 37.9059C56.9302 37.9271 56.6414 37.9504 55.7145 38.1294L54.3164 38.3996C53.3895 38.5786 53.1128 38.6647 53.0028 38.6859C52.8457 38.7163 52.827 38.7036 52.7997 38.5622C52.7784 38.4523 52.7492 38.132 52.5974 37.3465L52.3303 35.9641C52.1785 35.1786 52.0864 34.8705 52.0652 34.7605C52.0348 34.6035 52.0475 34.5847 52.2046 34.5544C52.3303 34.5301 52.6191 34.5069 53.546 34.3278L53.2758 32.9296L53.0402 32.9752C51.8777 33.1998 51.4753 33.3101 51.381 33.3283C51.2239 33.3587 51.2052 33.346 51.1748 33.1889L50.9897 32.2306C50.9593 32.0735 50.972 32.0548 51.1291 32.0244C51.2234 32.0062 51.6379 31.9587 52.8004 31.7341L53.036 31.6886L53.0117 31.5629C52.8539 30.746 52.7563 30.3249 52.5867 29.8688C53.0767 29.7904 53.554 29.7308 53.9873 29.6959C54.1317 29.6843 54.2194 29.7163 54.2376 29.8105C54.2528 29.8891 54.2208 29.9768 54.2106 30.0928C54.2035 30.2245 54.2201 30.5635 54.3597 31.2862L54.387 31.4276L54.6855 31.3699C55.8323 31.1483 56.2347 31.038 56.3289 31.0198C56.486 30.9894 56.5048 31.0021 56.5351 31.1592L56.7203 32.1175C56.7506 32.2746 56.738 32.2933 56.5809 32.3237C56.4866 32.3419 56.0721 32.3894 54.9253 32.6109ZM55.6723 36.8991L55.3415 35.1868L53.5663 35.5297L53.8972 37.2421L55.6723 36.8991ZM52.2746 42.0858L51.0964 42.3135C50.9393 42.3438 50.9205 42.3312 50.8902 42.1741C50.872 42.0798 50.7061 41.0526 49.8987 36.8739L49.1308 32.8994C48.5905 30.1031 48.3588 29.0724 48.3375 28.9624C48.3072 28.8053 48.3199 28.7866 48.477 28.7562C48.5712 28.738 49.1271 28.6632 50.6352 28.3718L55.4423 27.443C56.9661 27.1486 57.5099 27.0109 57.6042 26.9927C57.7613 26.9624 57.78 26.9751 57.8104 27.1321C57.8316 27.2421 58.0066 28.3164 58.474 30.7357L59.3026 35.0244C60.0979 39.1403 60.3266 40.1553 60.3448 40.2496C60.3721 40.3909 60.3594 40.4097 60.2023 40.44L58.9927 40.6737C58.8356 40.7041 58.8169 40.6914 58.7895 40.55L58.6651 39.906L52.2713 41.1413L52.414 41.8796C52.4444 42.0367 52.4317 42.0555 52.2746 42.0858ZM50.1103 29.9562L51.9982 39.7274L58.3919 38.4921L56.504 28.7208L50.1103 29.9562ZM47.5885 40.3513L46.9298 36.9424C46.8145 36.3454 46.6657 35.5756 46.5388 34.8343C46.3476 35.2786 46.122 35.7133 45.8806 36.151C45.7792 36.301 45.7159 36.3947 45.653 36.4068C45.5745 36.422 45.4934 36.3399 45.4099 36.1605C45.1683 35.6694 44.8731 35.2376 44.6395 34.9568C45.5532 33.444 46.139 31.6686 46.4453 29.4584C46.5011 29.0728 46.5413 28.6902 46.4968 28.2914C47.0552 28.3139 47.5508 28.3485 48.0241 28.4363C48.209 28.4658 48.3124 28.4947 48.3366 28.6204C48.3579 28.7303 48.3072 28.8053 48.2185 28.9365C48.1267 29.052 48.0755 29.2086 48.013 29.6443C47.8856 30.4186 47.749 31.1457 47.5846 31.813L49.1751 40.0448C49.4726 41.5843 49.6527 42.348 49.6679 42.4265C49.6982 42.5836 49.6856 42.6024 49.5285 42.6327L48.2246 42.8846C48.0675 42.915 48.0487 42.9023 48.0184 42.7452C48.0002 42.651 47.8859 41.8908 47.5885 40.3513ZM75.8456 36.9776L66.1057 38.8595C64.7233 39.1266 64.2423 39.2521 64.1481 39.2703C63.991 39.3006 63.9879 39.2849 63.9576 39.1278L63.7269 37.9339C63.6966 37.7768 63.6966 37.7768 63.8537 37.7465C63.9479 37.7282 64.4379 37.6499 65.8204 37.3828L69.7792 36.6179L69.5242 35.2983L67.4034 35.708C65.8796 36.0025 65.3515 36.1371 65.2416 36.1583C65.0845 36.1887 65.0657 36.176 65.0354 36.0189L64.8229 34.9192C64.7895 34.7464 64.8022 34.7277 64.9593 34.6973C65.0693 34.6761 65.6095 34.6043 67.1333 34.3099L69.2541 33.9001C69.1418 33.3189 69.0375 32.9479 68.9079 32.6145C69.4607 32.5239 70.0009 32.4522 70.5599 32.3931C70.72 32.3784 70.8264 32.423 70.8416 32.5016C70.8628 32.6116 70.8309 32.6992 70.805 32.8183C70.7664 32.9561 70.7871 33.1477 70.8721 33.5875L73.1971 33.1383C74.7367 32.8408 75.2647 32.7062 75.359 32.688C75.5161 32.6577 75.5348 32.6703 75.5682 32.8431L75.7807 33.9428C75.811 34.0999 75.7983 34.1186 75.6412 34.149C75.547 34.1672 75.0068 34.239 73.4673 34.5364L71.1423 34.9857L71.3972 36.3053L75.5602 35.5009C76.9584 35.2308 77.4423 35.121 77.5366 35.1028C77.6937 35.0724 77.6937 35.0724 77.724 35.2295L77.9547 36.4234C77.9851 36.5805 77.9881 36.5962 77.831 36.6266C77.7368 36.6448 77.2437 36.7075 75.8456 36.9776ZM66.9975 29.6429L66.7618 29.6884C65.4579 29.9404 64.9456 30.072 64.8356 30.0932C64.6785 30.1236 64.6598 30.1109 64.6295 29.9538L64.4261 28.9013C64.3957 28.7442 64.4084 28.7254 64.5655 28.6951C64.6755 28.6738 65.2 28.6051 66.5038 28.3531L71.5309 27.3819C72.8348 27.1299 73.3471 26.9984 73.4414 26.9801C73.5984 26.9498 73.6172 26.9625 73.6475 27.1196L73.8509 28.1721C73.8813 28.3292 73.8686 28.3479 73.7115 28.3783C73.6172 28.3965 73.19 28.4627 72.1973 28.6383L72.2693 28.6732C73.2293 29.1722 74.3976 29.9894 75.3089 30.7422C75.4462 30.8623 75.4426 30.9282 75.2941 31.0873L74.5358 31.8856C74.4694 31.9636 74.4253 31.9884 74.3939 31.9945C74.3468 32.0036 74.2936 31.9813 74.2313 31.9119L73.3827 31.1469C70.8078 31.9052 67.9851 32.6461 65.317 33.2594C64.9902 33.3388 64.8518 33.3819 64.7697 33.4629C64.716 33.5222 64.6592 33.5657 64.5806 33.5809C64.4864 33.5991 64.4271 33.5454 64.3684 33.4101C64.1952 33.0198 63.9977 32.5039 63.8312 32.0635C64.4028 31.9857 64.9369 31.8825 65.471 31.7793C65.7538 31.7246 66.0523 31.667 66.3477 31.5936C66.6221 30.9051 66.8681 30.2383 66.9975 29.6429ZM71.946 28.6868L68.7412 29.306C68.5388 30.0295 68.3182 30.6588 68.0667 31.2126C69.4243 30.9014 70.8072 30.5527 72.1558 30.1944L71.2433 29.6048C71.0777 29.5064 71.1187 29.4659 71.286 29.3195L71.946 28.6868ZM69.2604 25.2458L72.9993 24.5234C74.4288 24.2472 74.9412 24.1156 75.0511 24.0944C75.2082 24.064 75.227 24.0767 75.2604 24.2495C75.2755 24.328 75.2927 24.5855 75.3686 24.9782L75.4869 25.5909C75.7389 26.8948 75.8128 27.1086 75.831 27.2029C75.8614 27.36 75.8487 27.3787 75.6916 27.4091L74.4348 27.6519C74.262 27.6853 74.2433 27.6726 74.2129 27.5155L73.8851 25.8189L63.7211 27.7827L64.0489 29.4793C64.0792 29.6364 64.0666 29.6551 63.9095 29.6855L62.6527 29.9283C62.4799 29.9617 62.4612 29.949 62.4308 29.7919C62.4126 29.6977 62.4015 29.4717 62.1496 28.1678L62.0525 27.6651C61.9554 27.1624 61.8754 26.9171 61.8602 26.8386C61.8268 26.6657 61.8395 26.647 62.0123 26.6136C62.1065 26.5954 62.631 26.5267 64.0763 26.2474L67.6109 25.5645L67.5745 25.376C67.4895 24.9361 67.3853 24.5652 67.2369 24.219C67.8212 24.1224 68.3928 24.0446 68.936 23.9885C69.0962 23.9739 69.2025 24.0185 69.2208 24.1127C69.242 24.2227 69.2101 24.3104 69.1842 24.4294C69.1456 24.5672 69.1663 24.7588 69.227 25.073L69.2604 25.2458ZM30.5656 55.6504L30.5595 55.619C28.7128 56.3506 27.0956 57.0053 25.4815 57.6756C24.9119 57.9324 24.7608 57.9941 24.5404 58.1182C24.4395 58.1866 24.3447 58.2864 24.219 58.3107C24.1091 58.3319 23.9652 58.2619 23.875 58.1327C23.5889 57.748 23.3098 57.2315 22.966 56.5484C23.7611 56.3622 24.2202 56.2083 25.4122 55.7987C27.2898 55.1426 30.6457 53.9564 34.5956 52.6392C34.8251 52.5623 34.9219 52.6414 34.9589 52.7483C35.1072 53.0944 35.2981 53.6605 35.3988 54.0973C35.4352 54.2858 35.35 54.3512 35.1458 54.3906C34.4166 54.5804 33.929 54.7561 33.296 55.1066C30.8015 56.5337 29.8213 58.6297 30.1855 60.5148C30.5771 62.5414 32.2348 63.3618 35.0016 63.0064C35.253 62.9579 35.3594 63.0025 35.3928 63.1753C35.4717 63.5838 35.5151 64.1457 35.481 64.5597C35.4794 64.8045 35.4348 64.9109 35.2463 64.9473C32.4814 65.4815 29.1429 64.4806 28.5116 61.2131C28.0806 58.9823 28.9046 57.2587 30.5656 55.6504ZM33.2775 57.4567L33.9978 56.7146C34.0642 56.6366 34.1301 56.6402 34.2395 56.7005C34.7994 56.9834 35.4863 57.5026 36.0567 58.0931C36.1378 58.1752 36.1529 58.2537 36.0581 58.3535L35.4924 58.968C35.3977 59.0678 35.3161 59.0673 35.2163 58.9725C34.6054 58.3409 33.9873 57.8411 33.2775 57.4567ZM34.5225 56.1407L35.1987 55.4234C35.2808 55.3423 35.331 55.3489 35.4404 55.4093C36.1066 55.7368 36.7936 56.2559 37.2454 56.739C37.3265 56.8211 37.3604 56.9123 37.2529 57.0309L36.7186 57.6393C36.6112 57.7578 36.5235 57.7258 36.4425 57.6437C35.8878 57.0502 35.2698 56.5503 34.5225 56.1407ZM54.9588 60.6171L54.4111 61.8311C54.3442 61.9907 54.256 62.0403 54.0807 61.9764C52.4751 61.3415 50.9378 60.8074 49.3149 60.4202C47.9523 61.9709 45.9682 63.0875 43.3106 64.0084C42.8327 64.1496 42.817 64.1527 42.5592 63.7462C42.3232 63.3681 42.0461 63.0305 41.7558 62.7933C44.3338 62.0508 46.1689 61.1747 47.4346 60.0502C46.6416 59.9101 45.839 59.8044 44.9796 59.7423L44.687 60.3366C44.6013 60.4835 44.5289 60.5301 44.2907 60.4784L43.2566 60.2708C42.9683 60.2124 42.9718 60.1465 43.0545 59.9839C43.2639 59.6338 43.4642 59.2366 43.6361 58.8612C43.8911 58.2416 44.1594 57.5216 44.4029 56.7575L42.8163 57.0641C41.4181 57.3342 40.9529 57.4567 40.8586 57.4749C40.7015 57.5053 40.6828 57.4926 40.6524 57.3355L40.4218 56.1416C40.3914 55.9845 40.4041 55.9657 40.5612 55.9354C40.6554 55.9172 41.1328 55.8575 42.5309 55.5874L44.8717 55.1351C44.9488 54.8595 45.0228 54.5682 45.0812 54.2799C45.2004 53.8005 45.3177 53.1423 45.3275 52.6027C45.9143 52.6034 46.5543 52.6264 47.0873 52.6864C47.2191 52.6935 47.3128 52.7569 47.331 52.8511C47.3492 52.9454 47.3046 53.0518 47.1971 53.1703C47.0866 53.2731 47.007 53.4515 46.904 53.8462L46.6625 54.7891L52.2237 53.7147C53.6218 53.4445 54.0713 53.3251 54.1813 53.3038C54.3384 53.2735 54.3571 53.2861 54.3875 53.4432L54.6182 54.6372C54.6485 54.7943 54.6358 54.813 54.4787 54.8434C54.3688 54.8646 53.9071 54.9212 52.509 55.1913L51.4879 55.3886C51.2716 56.7993 50.884 57.9986 50.303 59.0397C51.8134 59.3508 53.3294 59.7749 54.8732 60.2589C54.9609 60.2908 54.9984 60.3162 55.0105 60.379C55.0227 60.4418 55.0034 60.5107 54.9588 60.6171ZM49.7284 55.7286L46.1938 56.4115C45.9949 57.0692 45.7616 57.7172 45.5126 58.3683C46.5539 58.4441 47.5856 58.5544 48.5949 58.7179C49.1622 57.8587 49.5294 56.8914 49.7284 55.7286ZM47.2158 50.3149L50.719 49.6381C52.1957 49.3528 52.7238 49.2181 52.818 49.1999C52.9751 49.1696 52.9939 49.1822 53.0212 49.3236C53.0394 49.4179 53.0626 49.7067 53.1446 50.1309L53.269 50.775C53.5361 52.1574 53.613 52.387 53.6313 52.4812C53.6616 52.6383 53.6489 52.6571 53.4918 52.6874L52.188 52.9394C52.0309 52.9697 52.0121 52.957 51.9818 52.7999L51.6266 50.9619L41.9339 52.8347L42.289 54.6727C42.3194 54.8298 42.3067 54.8485 42.1496 54.8789L40.8457 55.1308C40.6886 55.1611 40.6699 55.1485 40.6395 54.9914C40.6183 54.8814 40.6072 54.6554 40.3401 53.273L40.2399 52.7546C40.1337 52.2047 40.0477 51.928 40.0294 51.8338C40.0021 51.6924 40.0148 51.6736 40.1719 51.6433C40.2819 51.622 40.8063 51.5533 42.283 51.268L45.5663 50.6336L45.5299 50.4451C45.3994 49.7696 45.286 49.3515 45.1159 48.977C45.7002 48.8804 46.2875 48.7995 46.8307 48.7434C47.0065 48.7258 47.0942 48.7577 47.1094 48.8363C47.1306 48.9462 47.0987 49.0339 47.0758 49.1687C47.053 49.3034 47.061 49.5137 47.1794 50.1264L47.2158 50.3149ZM63.4301 51.6635L64.4833 57.1147C64.5531 57.476 64.6899 57.6778 64.9123 57.7325C65.119 57.7904 65.5082 57.7804 66.3094 57.6256C67.1263 57.4677 67.5352 57.3072 67.738 57.0073C68.026 56.6421 68.054 56.1967 67.7019 54.3744C68.1214 54.5215 68.6073 54.5905 69.1029 54.6252C69.5326 54.6562 69.5326 54.6562 69.5958 55.0677C69.8759 56.855 69.7678 57.5603 69.3029 58.1064C68.8001 58.7088 68.0166 59.0394 66.5085 59.3308C64.9218 59.6373 64.2534 59.6361 63.8278 59.4576C63.3521 59.2725 63.0593 58.938 62.8833 58.0268L61.7177 51.9944C61.5599 51.1775 61.4562 50.7249 61.2775 50.2217C61.846 50.1281 62.4394 50.0787 62.973 50.0571C63.2304 50.0399 63.3429 50.116 63.3642 50.2259C63.3854 50.3359 63.3661 50.4048 63.3245 50.5269C63.2733 50.6835 63.2813 50.8938 63.4301 51.6635ZM68.2793 50.5311L69.3036 49.8443C69.4926 49.7263 69.521 49.7045 69.6299 49.8464C70.8542 51.2068 71.9295 52.8079 72.6795 54.2437C72.76 54.4074 72.7504 54.4419 72.5674 54.5913L71.4858 55.4032C71.2871 55.5557 71.24 55.5648 71.1594 55.4011C70.4075 53.7864 69.3854 52.2077 68.1768 50.8442C68.071 50.718 68.0902 50.6491 68.2793 50.5311ZM61.0899 47.2269L61.5615 46.1254C61.6538 45.9283 61.6822 45.9066 61.8484 45.9233C63.3407 46.1402 64.9448 46.5147 66.516 47.14C66.6913 47.2039 66.6973 47.2353 66.6238 47.4451L66.1825 48.7036C66.0994 48.9478 66.071 48.9696 65.9114 48.9027C64.397 48.2338 62.6682 47.7205 61.1917 47.5006C61.0914 47.4874 61.0569 47.4777 61.0478 47.4306C61.0387 47.3835 61.061 47.3303 61.0899 47.2269ZM59.2469 52.1947L60.4169 52.262C60.649 52.2823 60.6864 52.3077 60.7011 52.4678C60.8225 54.5302 60.6898 56.1203 60.2878 58.0883C60.2523 58.2418 60.2143 58.298 59.9761 58.2463L58.7292 57.9494C58.488 57.882 58.4601 57.8222 58.4987 57.6844C58.9558 55.9175 59.0856 54.3118 58.9854 52.3593C58.9803 52.1648 58.9961 52.1617 59.2469 52.1947Z" fill="white"/>
</svg>
