<svg width="192" height="17" viewBox="0 0 192 17" fill="none" xmlns="http://www.w3.org/2000/svg">
<path d="M-1.00161e-07 15.7616C0.258545 15.972 0.51709 16.1824 0.775635 16.3928C2.91951 14.2307 5.96824 12.938 8.92797 11.7946C32.4162 4.03771 57.8095 4.86966 82.3731 6.9696C82.808 7.01101 83.2411 7.05212 83.6724 7.09294C116.218 9.12895 150.247 16.9721 182.589 5.83047C185.65 4.60105 188.602 3.12983 191.419 1.45942C191.262 1.1652 191.106 0.870976 190.949 0.576756C188.032 1.96201 185.031 3.13991 181.968 4.08143C150.257 12.2287 116.952 3.20018 84.2378 1.11964C83.8059 1.07877 83.3722 1.03796 82.9366 0.99724C57.8566 -1.11391 31.5329 -0.612461 8.10314 9.89895C5.14944 11.4155 2.14504 13.0411 -1.00161e-07 15.7616Z" fill="#F3CFD7" fill-opacity="0.7"/>
</svg>
